<svg xmlns="http://www.w3.org/2000/svg" viewBox="0 0 836.37 369.97"><defs><style>.cls-1{fill:#fff;}</style></defs><title>SavannahRC-mark</title><g id="Layer_2" data-name="Layer 2"><g id="Layer_1-2" data-name="Layer 1"><path d="M74.8,253.3c7.38,0,13.9-.3,20.62-.11l471.74-.06c-7.31,6.92-9.46,22.35-17.76,22.65H106c-7.27.16-36.5,0-38.55,0-2.56,0-6.6,1.16-8.14,2.7a14.29,14.29,0,0,0-4.05,6.07c-.82,2.15.55,7.8,2.19,9.65a46,46,0,0,0,6.61,5.93q4.16,3.17,8.84,6.93a36.88,36.88,0,0,1,8,8.93A27.58,27.58,0,0,1,85,327.93q.76,6.76-2.92,15.86a51.35,51.35,0,0,1-6.77,12.4,30.53,30.53,0,0,1-9.3,8.08,40,40,0,0,1-12.68,4.39A96.26,96.26,0,0,1,36.43,370a55.85,55.85,0,0,1-19.07-2.92A27.5,27.5,0,0,1,5,358.67,23.15,23.15,0,0,1,.07,345.45q-.54-7.77,3.3-17.45H30.58A7.81,7.81,0,0,1,36,329.77q2,1.77,0,6.22a4,4,0,0,0-.38,1.08,5,5,0,0,0-.08.77,12.65,12.65,0,0,0-.38,5.22c.25,1.44,1.36,2.16,3.31,2.16a8.27,8.27,0,0,0,6.14-2.31A23.17,23.17,0,0,0,49,335.22a5.45,5.45,0,0,0-1.23-5.92,43.79,43.79,0,0,0-6.61-6q-4.14-3.15-8.84-7a38.74,38.74,0,0,1-8-8.91,27,27,0,0,1-4.08-11.92q-.77-6.84,2.92-15.91A51.2,51.2,0,0,1,30,267.19a30.49,30.49,0,0,1,9.3-8.07c5.86-3.57,12.57-4.69,18-5.37C64.12,253.2,68.34,253.3,74.8,253.3Z"/><path d="M144.38,368.28h-35A33.77,33.77,0,0,1,99,366.69a15.91,15.91,0,0,1-7.92-5.38q-3-3.81-3.36-10.15t3.42-15.71q.64-1.9,1.9-5.2l2.66-7q1.65-4.31,4.19-10.39a45.7,45.7,0,0,1,14.2-19.71q9.38-7.43,22.81-7.42h.89a26,26,0,0,1,12.68,3,9.57,9.57,0,0,1,3-2.21,9.4,9.4,0,0,1,4.12-.83h20.28Zm-26-28q-2,4.83-1.21,6.23c.55.93,1.63,1.4,3.23,1.4a7.37,7.37,0,0,0,6.22-2.8l8-19.71,4.19-11.07a4.1,4.1,0,0,0,.06-3.88,3.45,3.45,0,0,0-3.23-1.59c-2.12,0-3.62.41-4.5,1.21a13.31,13.31,0,0,0-2.73,4.39Z"/><path d="M262.41,285.75l-64.78,82.53H167.2l9.64-82.53h20.28a5.93,5.93,0,0,1,4.18,1.4c1,.93,1.4,2.36,1.14,4.31l.13-.13-4.31,37.52,31.06-39.8a10.09,10.09,0,0,1,2.66-2.29,6.31,6.31,0,0,1,3.3-1Z"/><path d="M295.87,368.28h-35a33.75,33.75,0,0,1-10.39-1.59,15.91,15.91,0,0,1-7.92-5.38q-3-3.81-3.36-10.15t3.42-15.71c.42-1.27,1.06-3,1.9-5.2l2.66-7q1.65-4.31,4.19-10.39a45.7,45.7,0,0,1,14.2-19.71q9.38-7.43,22.81-7.42h.89a26,26,0,0,1,12.68,3,9.57,9.57,0,0,1,3-2.21,9.4,9.4,0,0,1,4.12-.83h20.28Zm-26-28q-2,4.83-1.2,6.23c.55.93,1.63,1.4,3.23,1.4a7.37,7.37,0,0,0,6.22-2.8l8-19.71,4.19-11.07a4.1,4.1,0,0,0,.06-3.88,3.46,3.46,0,0,0-3.23-1.59c-2.12,0-3.62.41-4.5,1.21a13.31,13.31,0,0,0-2.73,4.39Z"/><path d="M381.19,287.27a24.2,24.2,0,0,1,8.62,4.06,12.74,12.74,0,0,1,4.31,6,18.12,18.12,0,0,1,.76,7.42,19.76,19.76,0,0,1-1.14,6.72l-22.31,56.79h-27l20.28-54.51a4.5,4.5,0,0,0,.07-3.81,3.06,3.06,0,0,0-3-1.64,7.4,7.4,0,0,0-4.38,1.64,10.07,10.07,0,0,0-3.23,3.81L332,368.28H304.37l33.21-82.53H367.5A52.07,52.07,0,0,1,381.19,287.27Z"/><path d="M454.71,287.27a24.25,24.25,0,0,1,8.63,4.06,12.72,12.72,0,0,1,4.3,6,18,18,0,0,1,.77,7.42,19.76,19.76,0,0,1-1.14,6.72L445,368.28H418l20.29-54.51a4.46,4.46,0,0,0,.06-3.81,3,3,0,0,0-3-1.64,7.4,7.4,0,0,0-4.38,1.64,10.16,10.16,0,0,0-3.23,3.81l-22.18,54.51H377.89l33.22-82.53H441A52,52,0,0,1,454.71,287.27Z"/><path d="M517.72,368.28h-35a33.66,33.66,0,0,1-10.39-1.59,16,16,0,0,1-7.93-5.38q-3-3.81-3.36-10.15t3.43-15.71q.63-1.9,1.9-5.2c.67-1.78,1.56-4.1,2.66-7s2.49-6.33,4.18-10.39a45.7,45.7,0,0,1,14.2-19.71q9.38-7.43,22.82-7.42h.89a26,26,0,0,1,12.67,3,9.69,9.69,0,0,1,3-2.21,9.43,9.43,0,0,1,4.12-.83h20.28Zm-26-28q-2,4.83-1.2,6.23c.54.93,1.62,1.4,3.23,1.4a7.37,7.37,0,0,0,6.21-2.8l8-19.71,4.18-11.07a4,4,0,0,0,.06-3.88,3.45,3.45,0,0,0-3.23-1.59c-2.11,0-3.61.41-4.5,1.21a13.31,13.31,0,0,0-2.73,4.39Z"/><path d="M604.62,285.75a23.35,23.35,0,0,1,8.55,4.12,13.16,13.16,0,0,1,4.32,6,17.74,17.74,0,0,1,.76,7.36,21.26,21.26,0,0,1-1.15,6.84l-22.81,58.19h-27l20.79-55.91a4.17,4.17,0,0,0,.13-3.86,3.19,3.19,0,0,0-3-1.59,7.47,7.47,0,0,0-4.37,1.59,9.42,9.42,0,0,0-3.24,3.86l-22.69,55.91H527.1L565,275.1c.76-1.94,8.73-19.12,10.42-20.26a9.57,9.57,0,0,1,5.45-1.71h20.54l-13.08,31.1H591A51.37,51.37,0,0,1,604.62,285.75Z"/><path d="M724.51,255.13q8.76.76,14,4.15a21,21,0,0,1,7.69,8.38,21.68,21.68,0,0,1,2.15,10.91,37.52,37.52,0,0,1-2.61,11.77,43.5,43.5,0,0,1-5.85,10.53,50.3,50.3,0,0,1-7.15,7.61,41,41,0,0,1-7.76,5.3c-2.67,1.39-5.23,2.59-7.69,3.62q7.08,2.3,8.77,9.84t-2.31,17.52L714.36,368H685.61a6.08,6.08,0,0,1-3.92-1.61c-1.28-1.08-1.51-2.69-.69-4.85l10.3-25.37a4.84,4.84,0,0,0-.31-4.76,4.57,4.57,0,0,0-4-2h-6.61L664.85,368h-34l45.36-113h48.28Zm-14.45,32.75a5.35,5.35,0,0,0-.08-4.77,4,4,0,0,0-3.77-2h-6.15l-7.22,17.68h6.3a8.85,8.85,0,0,0,5.3-2,12.12,12.12,0,0,0,3.93-4.76Z"/><path d="M830.9,262.66q8.16,9.54,4.16,27.21a5.58,5.58,0,0,1-.23,1.16,10.26,10.26,0,0,1-4.85,6.22,17.63,17.63,0,0,1-7.07,1.39H795.54l4.31-10.76a5.06,5.06,0,0,0,.07-4.77,4.14,4.14,0,0,0-3.92-2c-2.56,0-4.41.49-5.53,1.46a13.93,13.93,0,0,0-3.23,5.46L768,335.69c-1.54,3.9-2,6.41-1.31,7.54s2,1.69,3.92,1.69a9.71,9.71,0,0,0,5.54-1.46,11.34,11.34,0,0,0,3.69-5.31l4.46-11.07h28.14a8.83,8.83,0,0,1,5.38,1.39q1.85,1.38.46,4.92a23.37,23.37,0,0,1-1,2.3,24.67,24.67,0,0,0-1,2.31,97.26,97.26,0,0,1-8.53,16.76,34.1,34.1,0,0,1-9.23,9.61,28.11,28.11,0,0,1-11.22,4.3,91.24,91.24,0,0,1-14.38,1H757.41a41.11,41.11,0,0,1-12.61-1.92,19.81,19.81,0,0,1-9.68-6.53Q731.42,356.6,731,349t4-19l5.84-14.6q2.63-6.47,5.69-14.15T752.64,286a63.8,63.8,0,0,1,7.23-13.45,47,47,0,0,1,10-10.38,45.25,45.25,0,0,1,12.61-6.69,46,46,0,0,1,15.07-2.38h6.77Q822.76,253.13,830.9,262.66Z"/><g id="xJZiea"><path d="M747.77,158.11l13.56-5c-1.32,3.59-3.06,6.48-6.7,7.77-3.44,1.22-6.78,2.72-10.21,4a2.05,2.05,0,0,0-1.64,2.51,5.87,5.87,0,0,1,0,1.45c-.19,1.9-.81,3.24-3,3.54-6.39.89-12.75,1.93-19.12,2.92-.84.13-1.67.35-2.72.57,1,2.48-.59,3.45-2.32,4.53-4.85,3-9.6,6.22-14.46,9.25a7.23,7.23,0,0,1-3.19,1.06c-17.28,1.45-34.56,2.82-51.84,4.22a28.06,28.06,0,0,0-5.6.83c-15.82.68-42.56,5.22-62.78,5.6-4.79.09-6.82-8.05-10.65-8.54-1.74-.22-12.84-.4-14.46,0h-7.77c-2.32,6.5-3.82,11.82-9.07,18.44-11.93,16-32.43,28.1-65.74,26.46-24.75-2-42.42-17.13-52.29-32.12-5.19-8.24-7.91-19.47-9.13-19.64-6-.82-12.16-1.48-16.78-2.06-17.56-2.22-35.62-3.57-53.18-5.79s-40-5.38-57.55-7.59c-18.77-2.37-33.19-2.1-52-4.47-4.53-.57-6.71-1.37-9-1.1,0,0-2.7,20.87-17.76,27.87-8.26,3.5-29.69,4.73-41.68-9.36-1.87-3.36-3.92-6.47-5.41-9.83-6-13.51-7.16-27.76-6.36-42.33a29.92,29.92,0,0,0-.8-6.54c-1.68-10-1.68-19.86,2-29.46a33.66,33.66,0,0,1,3.3-6.5c6.17-9.4,16.27-11.8,26.06-6.24,6.56,3.71,11.09,9.38,15,15.69a200.74,200.74,0,0,1,12.52,24c1.47,3.32,3.38,6.45,5.09,9.66l.7-.32c-3.18-7.15-6.37-14.3-9.64-21.66,2.26-.1,4.5-.24,6.74-.3,3.51-.09,7-.35,10.53-.13s7.2.94,10.8,1.42a80.33,80.33,0,0,0,9.1,1.08c7.89.14,15.78,0,23.67,0l42.6-.13c9.6,0,19.21-.2,28.82-.15,14.84.08,29.68.29,44.52.45,3.44,0,6.88.11,10.32.18.83,0,1.67.11,2.48.17-1.3,10.42-2.57,20.64-3.85,30.85l.64.1c1-4.82,1.79-9.67,2.89-14.46,2.45-10.68,6-21,12.63-29.85,7.27-9.7,16-17.64,27.89-21.27a44.93,44.93,0,0,1,25.84-.05c8.1,2.29,15.35,6.21,22.29,10.88,2.39,1.61,5.06,2.79,8.09,4.44-.68-4.79-3-8-5.3-11.26-3.62-5.18-8.83-8.48-14.09-11.75-1.12-.7-2.62-2.13-2.54-3.12.14-1.91,2.26-1.19,3.55-1.31,7.71-.75,15.1,1.14,22.46,3,7.57,1.91,15.21,3.63,22.62,6a201.29,201.29,0,0,1,19.72,7.85c8.63,3.85,17.1,8,25.64,12.1l1.87.88c3.5-3.57,6.31-3.86,10.47-1.16q11.54,7.5,23.08,15a12.25,12.25,0,0,0,1.6.85c-24.17-18.85-50.94-33.37-78-47.59l33.59,14.65.2-.41-5.43-3.29.14-.33,5.16,1.4c-1.25-1-2.09-1.76-3.21-2.72l3.15.29.2-.71-5.49-2.71,3.47-1.61-.08-.66-16-3.56-1.75,2.74,1.52,1.25L515,59.58l.08-.33c5.57.84,11.14,1.58,16.69,2.53,6.35,1.08,12.65,2.47,19,3.45a63.44,63.44,0,0,0,9.85.5c5.52,0,11-.17,16.55-.33,1.23,0,2.46-.34,4.25-.6-.83-1-1.16-1.65-1.7-2-5.22-3-10.39-5.67-16.74-6-20.32-1.12-40.61-2.69-60.91-4.09-4.77-.32-9.53-.65-14.26-1.4,7.12.32,14.24.59,21.36,1,9.16.47,18.34.7,27.46,1.62,12.41,1.25,24.76.28,37.14-.1a6.7,6.7,0,0,0,1-.17l.06-.73c-3.85-.55-7.68-1.24-11.54-1.61s-8-.42-12-1c6.63.22,13.27.31,19.89.72,8.08.51,16.15,1.22,24.21,2a17.53,17.53,0,0,1,5.92,1.56c10.94,5.3,21.81,10.75,32.65,16.59l-15.2-.93,0,.28c5.62.66,11.22,1.45,16.85,1.94,8.15.7,15.8,3.43,23.53,5.74,19.52,5.83,38.3,13.61,56.94,21.77,9.74,4.27,19,9.38,28.24,14.58a38.31,38.31,0,0,1,3.52,2.46,6,6,0,0,1,.68.83l-3.93.65v.6c2.32,0,4.63,0,6.94,0a3.12,3.12,0,0,1,2.06.54c1.64,1.87,3.11,3.9,4.89,6.19-4.13.22-7.88.44-11.64.63q-34,1.71-68.06,3.42c-18.32.92-36.63,2.13-55,2.61-10.14.26-20.32-.69-30.49-1.14-9-.41-18-.88-27.05-1.31-.56,0-1.12,0-1.92.08.41,2.33,2.11,3.52,3.74,4.46a11.14,11.14,0,0,0,4.7,1.29c14.87,1,29.74,2.24,44.63,2.76,8.13.29,16.31-.62,24.46-1.06,14.17-.77,28.34-1.61,42.5-2.41l61.38-3.45,5.93-.34c-1.26,1-3,2.35-4.56,3.82-2.41,2.25-3.85,4.94-3.26,8.4a2.54,2.54,0,0,1-.1,1.48c-2.38,4.42-.84,9.14-1.12,13.72-.09,1.57,0,3.15,0,4.72l.64.35a11.93,11.93,0,0,0,1.73-2.48c.56-1.51,1.2-2.83,2.82-3.4ZM470.9,207.54c10.76,0,18.11-1.86,24.53-5.37,29-15.91,34.06-57.29,9.71-79.95-18.65-17.35-46.62-16.42-64.05,2.15a50.58,50.58,0,0,0-5.71,61.13C444.36,199.67,457.39,207,470.9,207.54ZM226.29,162.69l182.39,21.15v-3.3c-.67-.2-1.27-.4-1.89-.55q-22.21-5.42-44.45-10.84c-6.12-1.48-12.19-3.43-18.4-4.22-12.29-1.56-24.67-2.45-37-3.62-19-1.81-37.95-3.67-56.94-5.39-3.35-.3-6.75,0-10.76,0,2.82-.48,5.08-1.3,7.29-1.17,7.74.44,15.44,1.4,23.16,2,18,1.45,35.93,3.17,53.88,5,10.84,1.09,21.71,1.65,32.39,4.29,16.68,4.13,33.49,7.74,50.26,11.54a9.62,9.62,0,0,0,2.08,0v-.66c-.59-.17-1.18-.37-1.78-.52-5.36-1.35-10.71-2.74-16.08-4-12.6-3-25.13-6.39-37.83-9-17-3.44-34.33-4.73-51.6-6.27-13.13-1.17-26.25-2.53-39.38-3.64-7.31-.63-14.61-2.12-22-.21-4.74,1.22-9.58,2.06-14.49,3.09C225.59,158.89,226,160.91,226.29,162.69ZM155.66,138c0,10,1.06,17.43,4,24.5a24.18,24.18,0,0,0,6.71,9.84c4,3.33,8.82,3.49,12.69,0a26.69,26.69,0,0,0,5.17-6.5c3.38-5.87,4.78-12.4,5.34-19.09.88-10.57.07-21-4.79-30.59a28.2,28.2,0,0,0-6.46-8.12c-3.36-3-7.42-2.71-11.11-.14a21,21,0,0,0-6.77,8.73A52.59,52.59,0,0,0,155.66,138ZM716,135.33c-2-.18-3.74-.27-5.44-.51-1.46-.21-1.95.47-2.39,2.11a55.33,55.33,0,0,1-3.06,8.13c-2.84,6.22-4,13.34-8.92,18.46-1.34,1.39-3.37,2.82-5.17,2.95-20.94,1.5-41.9,2.78-62.85,4.08-4.33.27-8.67.39-13,.58l-.2.81c1.86.6,3.75,1.79,5.58,1.7,12.73-.63,25.46-1.52,38.19-2.34,12.44-.8,24.89-1.54,37.32-2.51a8.65,8.65,0,0,0,4.86-2.25,18.71,18.71,0,0,0,4.06-5.71C708.73,152.48,712.26,144,716,135.33ZM607.13,100.54c-.11.18-.22.36-.32.54,6.55,3.67,13,7.44,19.67,11,4.59,2.45,9.35,4.59,14.07,6.79a22.76,22.76,0,0,0,3.41,1,3.45,3.45,0,0,1-2.18.13c-4.15-1.33-8.46-2.34-12.37-4.19a23,23,0,0,0-13.9-2.09c-1.67.26-2.1.91-1.77,2.38s.61,2.71,1,4.46c1.84.45,4,1.44,6.1,1.4,17.55-.37,35.1-.91,52.65-1.46a56.29,56.29,0,0,0,6-.81l0-.22H666.19v-.27h5.74C649.22,116.7,627.12,112.42,607.13,100.54ZM349.58,132.21l-.11.24,33.26,2.39c.22,2.59.42,5,.64,7.54l-31.78-2.14,0,.37,31.82,3.06c0,1.25,0,2.32,0,3.38-.08,2.88-1.15,3.88-4,3.68s-5.85-.52-8.78-.76l-13.45-1.06c7.23,1.06,14.48,1.84,21.74,2.58,3.87.4,5.34-1,5.16-5q-.36-8.18-.74-16.33c-.18-3.65-.34-7.3-.58-11-.11-1.58-.53-3-2.58-3H354.85v.73c8,0,16.06,0,24.09,0a2.68,2.68,0,0,1,3,2.63,36.28,36.28,0,0,1,.05,4.77H348l34.29,1.57c.17,2.66.33,5.23.49,7.9Z"/><path d="M256.82,59.45,267.27,59l0,.3-6.41.79c19.36-1.54,38.85-1.86,58.25-5.8-.32-.93-.51-1.6-.77-2.25-4.45-11.4-8.93-22.8-13.34-34.23a2.39,2.39,0,0,0-2.58-1.87c-12-.18-23.93-.54-35.9-.74-2.47,0-5,.33-7.46.51.51-5.65,3.16-8,8.42-8.28,10.48-.59,20.91.2,31.35.79.71,0,1.43,0,2.08,0,.56-.95,1.07-1.84,1.87-3.21.88,2.3,1.59,4.06,2.25,5.84l15.09,40.92c1,2.7,2.42,3.54,5.16,3.08q11.86-2,23.75-3.9c.26-.05.54,0,.88.51L324,56l-.08.85a8.6,8.6,0,0,0,2.53.31c4.29-.73,8.57-1.58,12.88-2.23l-3,1.26.1.64c16.42.38,32.89-1.59,49.42.77a21,21,0,0,1-2.36,1q-12.29,3.54-24.58,7a17.31,17.31,0,0,0-8.71,6.16c-8.43,10.39-13.48,22.55-17.9,35a16.35,16.35,0,0,1-1.63,2.74,17.52,17.52,0,0,1-1-3c-1.3-7.54-2.5-15.11-3.8-22.66-.48-2.76-4.68-6.51-7.46-6.74-19.37-1.58-38.73-3.27-58.11-4.64-5.26-.37-10.6.22-15.9.38a1.4,1.4,0,0,0-.83.17c-2.87,2.5-6.42,4.41-7.77,8.29-1.17,3.38-2.19,6.8-3.38,10.54-8.31-9.16-15-19.61-26.51-25.07-1.34,13.39-.81,26.77,2.85,40A66.64,66.64,0,0,1,204.79,89a105.63,105.63,0,0,1,.38-20.81c.26-2.38-.44-3.24-3.43-4.32-6.14-2.19-12.29-4.35-18.43-6.53-.39-.14-.78-.31-1.57-.63l10.85-5.39c-2.43-2.37-4.83-3.67-8.29-3a96,96,0,0,1-14,1.31c1.59-.62,3.16-1.32,4.78-1.83,12.55-3.95,24.81-3.52,36.78,2.29,1.11.53,2.6.26,4,.36-.37-1.15-.37-1.15-4.51-3.73,5.36-.25,10.14,1.56,14.7,3.57,4.23,1.86,8.08,4.57,12.09,6.9,3.1,1.81,6.27,3.42,10,3.33-5.45-.9-9.18-5-13.81-7.37-2.52-1.32-5.07-2.58-7.81-4l2.26-.24c2-6.38,3.82-12.7,5.94-18.91a96.9,96.9,0,0,1,4.54-10.66c.94-1.93-.06-2.8-1.47-2.85a33.78,33.78,0,0,0-8,.57c-5.65,1.2-10.3,4.56-15,7.69-2.14,1.42-4.12,3.08-6.4,4.8,2.82-4.91,25-17.52,35.61-21.42,13.43-4.92,27.22-5.7,41.26-5l-17.76.78A37,37,0,0,0,253,7.65c-1.67.79-2.64,3.09-3.83,4.76-.13.18.36.79.66,1.39l-2.66,2c2.42.44,3.88.4,5.18-1.43.65-.91,2.37-1.05,4-1.68l.53-2.28.32,0c0,.53.12,1.06.16,1.6.36,4.92.36,4.92-4.42,6.27l.45-3L252.8,15a13.85,13.85,0,0,0-2.21,3q-4.08,11-7.92,22c-1.25,3.58-2.32,7.22-3.28,10.89a5.65,5.65,0,0,0,.75,3.4c.94-4.54,4.27-3.83,7.22-3.89,1.87,0,3.73-.13,5.59-.19,1.18,0,1.64-.57,1.85-1.82a95.57,95.57,0,0,1,2.08-9.64c1.06-3.82,6.66-7.55,10.55-7.43a149.61,149.61,0,0,1,23.5,2.19,18.49,18.49,0,0,1,11.33,6.71,35.15,35.15,0,0,1,7.2,13.31,1.26,1.26,0,0,1-.3,1.25c-.23-.6-.44-1.22-.71-1.81-1.07-2.33-2.17-4.66-3.24-7a5.07,5.07,0,0,0-4.5-2.83c-10.27-.94-20.55-1.78-30.84-2.63a27.75,27.75,0,0,0-3.87-.06c-2.7.16-4,1.57-4,4.25V47.9h-.64c0-1.76-.34-3.6.09-5.25.54-2.12,2.85-3.2,5.6-3,10.14.69,20.27,1.43,30.85,2.18-3.91-.93-7.4-1.88-10.95-2.54a2.62,2.62,0,0,1-2.48-2.56c-.53-3.49-1-3.83-4.55-4-3.86-.22-7.73-.53-11.59-.55s-5.83,2.65-7.65,5.46c-2.77,4.27-2.64,9.3-3.43,14.06A74.63,74.63,0,0,0,256.82,59.45Zm-10.6-47.76c-3,1-6.32,5.83-5.77,8.16,2.89,0,3.62-.67,3.48-3.11l1.27-.26c.2-.81.18-1.91.56-2.08C247.41,13.69,246.66,12.79,246.22,11.69Z"/><path d="M429.68,8.86q26.18,19.25,52.37,38.47l-.64.89-33.12-23.7-.29.37,28.32,22.83c-3.78,0-7,.31-10.06-.06a334.89,334.89,0,0,0-44.43-2,6.81,6.81,0,0,1-6.37-3.22c-7-9.82-14.22-19.44-21.25-29.21-1.18-1.63-2.38-2.48-4.38-2.31-1.34.12-2.7,0-4.32,0,.16,1.76.3,3.43.47,5.31,2.26.19,4.44.5,6.64.52A3.12,3.12,0,0,1,395.84,19c.1.26.25.51.35.78,1.68,4.55.76,6.17-4.11,6.1-3.71-.06-7.43,0-11,0,2.24,5.95,4.6,12.19,7,18.5-1.69.55-2.32.29-2.83-1.08-2-5.57-4.24-11.09-6.45-16.61-.25-.61-.93-1.05-1.42-1.57l-.5.41,7.32,19.29c-4,0-7.52,0-11,0a1.85,1.85,0,0,1-1.35-.82c-2.38-4.51-6.6-5.61-11.09-5.56-7.23.07-14.46.54-21.69.9-2.26.11-3.21,1.84-4.47,3.62,0-.58-.21-1.29,0-1.71a5.25,5.25,0,0,1,4.52-2.79c3.65-.12,7.31-.3,10.95-.55a3.12,3.12,0,0,0,1.85-.83c1.58-1.6,2-6.61.59-9.23L333.87,38l-.25-.35c2.08-1.61,4.25-3.11,6.21-4.86,2.81-2.51,5.8-4.94,8.08-7.89,2.47-3.19,1.71-4.36-2.56-5.05-6.78-1.1-13.64-1.75-20.47-2.58-1.62-.19-3.24-.36-5.15-.57l5.62,16.43-.4.15-6.78-17.63c-1.67.09-1.94.79-1.47,2.24,3,9.27,5.84,18.57,8.75,27.86a1.32,1.32,0,0,1-.06,1.09L310,5.22c.86-.14,1.52-.28,2.19-.35a375.47,375.47,0,0,1,65.7-1c15,1,30,2.3,45,3.57a55.6,55.6,0,0,1,6.92,1.44Zm-64,1.15c3.2,1.12,6.16,2.55,8.37,5.24a1.23,1.23,0,0,0,.78.25c2.72.07,5.44.32,8.13.12,2-.14,1.45-2.11,1.7-3.4.22-1.11-.4-1.49-1.46-1.53C377.33,10.48,371.49,10.24,365.65,10Z"/><path d="M678,79.51h13v-.93c-2.9,0-5.8,0-8.7,0-3.44,0-6.88-.1-10.31-.24a13.26,13.26,0,0,1-3.37-.55c-8.07-2.48-16.17-4.88-24.16-7.6a65.71,65.71,0,0,1-9-4.39c-3.3-1.73-6.46-3.73-9.82-5.33-4.66-2.24-9.45-4.22-14.05-6.25l15.25-1.42a180.89,180.89,0,0,1,33.48,0A133.86,133.86,0,0,1,699,62.64,286.88,286.88,0,0,1,741.79,85c9.76,6.07,25.74,18.5,32,25.13C751.32,96.36,727.26,87,701.85,80.93c10.54,3.77,21.22,7.21,31.59,11.41s20.47,9.19,31,14c-.55.33-.68.46-.74.44-10.5-4.9-21.83-7.25-32.82-10.67-17.08-5.31-34.26-10.33-51.4-15.47-.51-.16-1-.37-1.52-.56Z"/><path d="M393.14,56.56l-2.59-.13c3.44-3.12,7.14-.52,10.39-1.84l-9.2-.47c.46-1.4,3.45-.08,2.92-2.72,2.64-.32,5.37-.77,8.13-.92.89,0,1.79.81,2.74,1a36.28,36.28,0,0,0,17.56-.93l-4.17-1,30.27-1.18v.14c-5,.46-10,.72-14.92,1.47a71.82,71.82,0,0,0-10.57,2.69A3.9,3.9,0,0,0,421.79,55c-.52,1.33.53,2.09,1.62,2.6,2.26,1.08,4.57,2.06,6.81,3.16a23.57,23.57,0,0,1,4.83,2.74c1.91,1.61,3.6,3.52,2.47,6.44-.73,1.88-.13,3.35,2.3,4.54-1.92.83-3.32,1.76-4.83,2a39.58,39.58,0,0,0-17.34,8.1.62.62,0,0,1-.63,0,45.65,45.65,0,0,1,15.8-9.24L426,72.87c-3.16-1.16-6.37-2.19-9.45-3.53-7.18-3.1-14.81-3.67-22.45-4.21C387.5,64.65,380.85,64,374.21,64c-4,0-8,1.31-12,2a3.65,3.65,0,0,1-1.94,0l33-9.1Z"/><path d="M136.67,104.17l10.69-2.7c-2.51,10.82-2.17,21.42-.29,32.48-11-5.73-17.79-14.44-22.28-25l1-.4s.06-.1.17-.33c-4.94-.51-10.23.94-14.86-3h14.3l-1.51-.92,3.81-1.34-4.29-1.24C126.48,100.22,135.76,102,136.67,104.17Z"/><path d="M747.84,158l-2.08.31c4.27-9.41,8.49-18.66,12.86-28.28l-4.08,1.26c2.23-3.86,6-5,10-5.94,5.44-1.24,10.83-2.73,16.24-4.11a5.94,5.94,0,0,1,1.91-.2,14.71,14.71,0,0,1-7.95,4.63,6.31,6.31,0,0,0-4.52,3.79c-3.73,7.58-7.59,15.11-11.49,22.61a5.13,5.13,0,0,1-2.23,2c-2.85,1.41-5.78,2.65-8.68,4Z"/><path d="M167,75.74c2.74-2.11,5.36-4.1,9.05-3.94a23.4,23.4,0,0,0,5.76-.64c2.18-.46,3.84.68,5.72,1.34,3.77,1.33,6.1,3.93,8.3,7.23,5.77,8.66,6.76,18.27,6.58,28.26-1.53-3-2.9-6.16-4.64-9.06-4.12-6.83-8.72-13.25-14.93-18.46C178.22,76.59,172.89,75.83,167,75.74Z"/><path d="M263.55,48c-.24-1.78.28-2.34,1.72-2.28,12.45.5,24.89.94,37.34,1.4,1.42.06,2.51.51,2.62,2.67Z"/><path d="M429.72,8.89c-3.44-.78-6.85-1.8-10.34-2.27-6.95-.93-14-1.15-20.89-2.39-16.38-2.95-33-2.88-49.47-3.84-3-.18-6-.33-9-.36,5.42,0,10.85-.07,16.27,0,18.79.28,37.45,2.25,56.08,4.61,3.12.4,6.29.54,9.39,1.09,2.94.52,5.82,1.42,8.73,2.15l-.15.56c-.23.13-.45.27-.67.41Z"/><path d="M135.26,69c-8.91,4.48-9.82,12.69-11.32,20.55-.44,2.3-.61,4.64-1.09,6.94-.47-7.57.23-15,3.25-22C127.66,70.89,130.54,68.82,135.26,69Z"/><path d="M394.51,48.16l-31.07,3.73,0,.42,25.31,1.31v.3l-32-1.57,0-.62,37.78-4.29Z"/><path d="M351.71,46.33c-2.17.21-4.33.49-6.51.6s-4.15,0-6,0C340,45.86,342,45.61,351.71,46.33Z"/><path d="M765.75,107.54c1.44.83,2.93,1.57,4.29,2.51,1,.69.56,2.2-.8,2.55a14.39,14.39,0,0,1-4.6.36l4.85-1.24.31-.6-4.19-3.32Z"/><path class="cls-1" d="M470.9,207.54c-13.51-.53-26.54-7.87-35.52-22a50.58,50.58,0,0,1,5.71-61.13c17.43-18.57,45.4-19.5,64.05-2.15,24.35,22.66,19.32,64-9.71,79.95C489,205.68,481.66,207.54,470.9,207.54ZM501,157.81c.05-12.92-10-23.34-22.53-23.38s-22.64,10.29-22.69,23c-.05,13,9.87,23.38,22.43,23.47A22.83,22.83,0,0,0,501,157.81Zm2.3-24.26c.07-.27.11-.35.09-.39a4.76,4.76,0,0,0-.5-.68c-9.53-9.5-20.87-12.72-33.71-8.71C451.86,129.18,442,148,446.41,166.12c4.74,19.2,23.19,30.51,41.49,25.43,4.41-1.22,9.33-3.87,11.44-6.41-7.69,5-15.56,6.73-24,4.92a30.5,30.5,0,0,1-19.75-13.77,34.11,34.11,0,0,1,5.3-43.43C471.44,123.11,489.34,120.75,503.31,133.55Z"/><path class="cls-1" d="M226.29,162.69c-.33-1.78-.7-3.8-1.16-6.35,4.91-1,9.75-1.87,14.49-3.09,7.38-1.91,14.68-.42,22,.21,13.13,1.11,26.25,2.47,39.38,3.64,17.27,1.54,34.59,2.83,51.6,6.27,12.7,2.57,25.23,5.92,37.83,9,5.37,1.3,10.72,2.69,16.08,4,.6.15,1.19.35,1.78.52v.66a9.62,9.62,0,0,1-2.08,0c-16.77-3.8-33.58-7.41-50.26-11.54-10-2.46-20.08-3.12-30.2-4.08-19.9-1.88-39.82-3.67-59.74-5.49-6.49-.6-13-1.34-19.49-1.71-2.21-.13-4.47.69-7.29,1.17,4,0,7.41-.26,10.76,0,19,1.72,38,3.58,56.94,5.39,12.35,1.17,24.73,2.06,37,3.62,6.21.79,12.28,2.74,18.4,4.22q22.23,5.4,44.45,10.84c.62.15,1.22.35,1.89.55v3.3Z"/><path class="cls-1" d="M155.66,138a52.59,52.59,0,0,1,4.73-21.38,21,21,0,0,1,6.77-8.73c3.69-2.57,7.75-2.82,11.11.14a28.2,28.2,0,0,1,6.46,8.12c4.86,9.62,5.67,20,4.79,30.59-.56,6.69-2,13.22-5.34,19.09a26.69,26.69,0,0,1-5.17,6.5c-3.87,3.5-8.66,3.34-12.69,0a24.18,24.18,0,0,1-6.71-9.84C156.72,155.44,155.64,148,155.66,138Zm29.93-14.48c-1.76-5-3.84-9.43-8.48-12.09a7.28,7.28,0,0,0-9.13,1.1,21.23,21.23,0,0,0-5,6.58,50.82,50.82,0,0,0-.19,42.08c1.21,2.83,3.57,5.34,5.87,7.49s5.18,2.24,8.06.9c4.14-1.93,9-9.4,9.15-14.07-4.72,3.27-10-.23-10.67-7,3.65-1.58,3.93-4.85,3.9-8.11s-.39-6.65-4.39-7.8C175.82,125,179.88,121.46,185.59,123.53Z"/><path class="cls-1" d="M716,135.33c-3.74,8.71-7.27,17.15-11,25.5a18.71,18.71,0,0,1-4.06,5.71,8.65,8.65,0,0,1-4.86,2.25c-12.43,1-24.88,1.71-37.32,2.51-12.73.82-25.46,1.71-38.19,2.34-1.83.09-3.72-1.1-5.58-1.7l.2-.81c4.34-.19,8.68-.31,13-.58,21-1.3,41.91-2.58,62.85-4.08,1.8-.13,3.83-1.56,5.17-2.95,4.54-4.68,5.86-11,8.22-16.84,1.4-3.45,2.71-6.94,4-10.44.41-1.14,1-1.6,2.18-1.42C712.26,135.06,714,135.15,716,135.33Z"/><path class="cls-1" d="M607.13,100.54c20,11.88,42.09,16.16,64.8,18.65h-5.74v.27h13.29l0,.22a56.29,56.29,0,0,1-6,.81c-17.55.55-35.1,1.09-52.65,1.46-2.12,0-4.26-1-6.1-1.4-.4-1.75-.71-3.1-1-4.46s.1-2.12,1.77-2.38a23,23,0,0,1,13.9,2.09c3.91,1.85,8.22,2.86,12.37,4.19a3.45,3.45,0,0,0,2.18-.13,22.76,22.76,0,0,1-3.41-1c-4.72-2.2-9.48-4.34-14.07-6.79-6.63-3.53-13.12-7.3-19.67-11C606.91,100.9,607,100.72,607.13,100.54Z"/><path class="cls-1" d="M349.58,132.21l33.19,1.56c-.16-2.67-.32-5.24-.49-7.9L348,124.3h34a36.28,36.28,0,0,0-.05-4.77,2.68,2.68,0,0,0-3-2.63c-8,.08-16.06,0-24.09,0v-.73h25.32c2.05,0,2.47,1.46,2.58,3,.24,3.65.4,7.3.58,11q.38,8.16.74,16.33c.18,3.93-1.29,5.37-5.16,5-7.26-.74-14.51-1.52-21.74-2.58L370.62,150c2.93.24,5.85.54,8.78.76s3.9-.8,4-3.68c0-1.06,0-2.13,0-3.38l-31.82-3.06,0-.37,31.78,2.14c-.22-2.57-.42-4.95-.64-7.54l-33.26-2.39Z"/><path class="cls-1" d="M246.22,11.69c.44,1.1,1.19,2-.46,2.71-.38.17-.36,1.27-.56,2.08l-1.27.26c.14,2.44-.59,3.09-3.48,3.11C239.9,17.52,243.2,12.72,246.22,11.69Z"/><path class="cls-1" d="M365.65,10c5.84.23,11.68.47,17.52.68,1.06,0,1.68.42,1.46,1.53-.25,1.29.29,3.26-1.7,3.4-2.69.2-5.41,0-8.13-.12a1.23,1.23,0,0,1-.78-.25C371.81,12.56,368.85,11.13,365.65,10Z"/><path d="M501,157.81a22.83,22.83,0,0,1-22.79,23.1c-12.56-.09-22.48-10.47-22.43-23.47,0-12.72,10.24-23.05,22.69-23S501.06,144.89,501,157.81Zm-37.57.8c.26,6.15,3.07,11.6,9.48,14.61,5.81,2.73,11.36,1.75,16.22-2.4,6.88-5.87,7.73-16.71,2-23.89a15,15,0,0,0-21.62-2.33C465.42,148,463.52,152.51,463.44,158.61Z"/><path d="M503.31,133.55c-14-12.8-31.87-10.44-42.43-.69a34.11,34.11,0,0,0-5.3,43.43,30.5,30.5,0,0,0,19.75,13.77c8.45,1.81,16.32.08,24-4.92-2.11,2.54-7,5.19-11.44,6.41-18.3,5.08-36.75-6.23-41.49-25.43-4.46-18.11,5.45-36.94,22.78-42.35,12.84-4,24.18-.79,33.71,8.71a4.76,4.76,0,0,1,.5.68S503.38,133.28,503.31,133.55Z"/><path d="M185.59,123.53c-5.71-2.07-9.77,1.42-10.91,9,4,1.15,4.35,4.48,4.39,7.8s-.25,6.53-3.9,8.11c.67,6.81,6,10.31,10.67,7-.15,4.67-5,12.14-9.15,14.07-2.88,1.34-5.84,1.19-8.06-.9S164,164,162.76,161.2a50.82,50.82,0,0,1,.19-42.08,21.23,21.23,0,0,1,5-6.58,7.28,7.28,0,0,1,9.13-1.1C181.75,114.1,183.83,118.57,185.59,123.53Zm-7.84,17.35a36.35,36.35,0,0,0-2-5.82c-1.19-2.17-2.92-2.05-4.29,0-1.91,2.91-1.82,8.62.18,11.46,1.24,1.76,2.55,2,3.7.2S177,142.88,177.75,140.88Z"/><path class="cls-1" d="M463.44,158.61c.08-6.1,2-10.59,6.07-14a15,15,0,0,1,21.62,2.33c5.74,7.18,4.89,18-2,23.89-4.86,4.15-10.41,5.13-16.22,2.4C466.51,170.21,463.7,164.76,463.44,158.61Zm7.42-10.2c4.91-.9,8.71,0,11.48,3.64a9.1,9.1,0,0,1,.9,10.49c-2.76,5-7.25,6.15-13.14,4.87a10.74,10.74,0,0,0,13-2.54,10.33,10.33,0,0,0,.62-12.74A10.72,10.72,0,0,0,470.86,148.41Z"/><path class="cls-1" d="M177.75,140.88c-.79,2-1.29,4.13-2.4,5.86s-2.46,1.56-3.7-.2c-2-2.84-2.09-8.55-.18-11.46,1.37-2.07,3.1-2.19,4.29,0A36.35,36.35,0,0,1,177.75,140.88Z"/><path d="M470.86,148.41a10.72,10.72,0,0,1,12.86,3.72,10.33,10.33,0,0,1-.62,12.74,10.74,10.74,0,0,1-13,2.54c5.89,1.28,10.38.14,13.14-4.87a9.1,9.1,0,0,0-.9-10.49C479.57,148.43,475.77,147.51,470.86,148.41Z"/></g></g></g></svg>