<svg xmlns="http://www.w3.org/2000/svg" viewBox="0 0 836.37 116.84"><title>SavannahRC</title><g id="Layer_2" data-name="Layer 2"><g id="Layer_1-2" data-name="Layer 1"><path d="M74.8.17c7.38,0,13.9-.3,20.62-.11L567.16,0c-7.31,6.92-9.46,22.36-17.76,22.65H106c-7.27.16-36.5,0-38.55,0-2.56,0-6.6,1.16-8.14,2.7a14.36,14.36,0,0,0-4.05,6.07c-.82,2.16.55,7.81,2.19,9.65A46,46,0,0,0,64.1,47q4.16,3.16,8.84,6.93a36.92,36.92,0,0,1,8,8.94A27.54,27.54,0,0,1,85,74.8q.76,6.78-2.92,15.86a51.35,51.35,0,0,1-6.77,12.4,30.39,30.39,0,0,1-9.3,8.08,40,40,0,0,1-12.68,4.39,96.26,96.26,0,0,1-16.91,1.31,55.61,55.61,0,0,1-19.07-2.92A27.42,27.42,0,0,1,5,105.54,23.12,23.12,0,0,1,.07,92.32q-.54-7.75,3.3-17.45H30.58A7.81,7.81,0,0,1,36,76.64q2,1.77,0,6.22a4.14,4.14,0,0,0-.38,1.08,5.15,5.15,0,0,0-.08.77,12.69,12.69,0,0,0-.38,5.23c.25,1.43,1.36,2.15,3.31,2.15a8.27,8.27,0,0,0,6.14-2.31q2.31-2.3,4.46-7.68a5.44,5.44,0,0,0-1.23-5.92,43.27,43.27,0,0,0-6.61-6q-4.14-3.15-8.84-7a38.79,38.79,0,0,1-8-8.92,26.88,26.88,0,0,1-4.08-11.92q-.77-6.84,2.92-15.91A51.12,51.12,0,0,1,30,14.07,30.53,30.53,0,0,1,39.27,6c5.86-3.57,12.57-4.69,18-5.37C64.12.07,68.34.17,74.8.17Z"/><path d="M144.38,115.15h-35A34.06,34.06,0,0,1,99,113.57a16,16,0,0,1-7.92-5.39q-3-3.81-3.36-10.14t3.42-15.72q.64-1.91,1.9-5.2c.68-1.77,1.56-4.1,2.66-7s2.5-6.34,4.19-10.4A45.76,45.76,0,0,1,114.09,40q9.38-7.41,22.81-7.42h.89a26,26,0,0,1,12.68,3.05,9.6,9.6,0,0,1,3-2.22,9.4,9.4,0,0,1,4.12-.83h20.28Zm-26-28q-2,4.83-1.21,6.23c.55.93,1.63,1.4,3.23,1.4a7.37,7.37,0,0,0,6.22-2.8l8-19.71,4.19-11.07a4.08,4.08,0,0,0,.06-3.87,3.45,3.45,0,0,0-3.23-1.59q-3.18,0-4.5,1.2a13.31,13.31,0,0,0-2.73,4.39Z"/><path d="M262.41,32.62l-64.78,82.53H167.2l9.64-82.53h20.28A5.93,5.93,0,0,1,201.3,34c1,.93,1.4,2.36,1.14,4.31l.13-.13-4.31,37.52,31.06-39.8A10.25,10.25,0,0,1,232,33.64a6.23,6.23,0,0,1,3.3-1Z"/><path d="M295.87,115.15h-35a34,34,0,0,1-10.39-1.58,16,16,0,0,1-7.92-5.39q-3-3.81-3.36-10.14t3.42-15.72c.42-1.27,1.06-3,1.9-5.2.68-1.77,1.56-4.1,2.66-7s2.49-6.34,4.19-10.4A45.76,45.76,0,0,1,265.58,40q9.38-7.41,22.81-7.42h.89A26,26,0,0,1,302,35.67a9.6,9.6,0,0,1,3-2.22,9.4,9.4,0,0,1,4.12-.83h20.28Zm-26-28q-2,4.83-1.2,6.23c.55.93,1.63,1.4,3.23,1.4a7.37,7.37,0,0,0,6.22-2.8l8-19.71,4.19-11.07a4.08,4.08,0,0,0,.06-3.87,3.46,3.46,0,0,0-3.23-1.59q-3.18,0-4.5,1.2a13.31,13.31,0,0,0-2.73,4.39Z"/><path d="M381.19,34.14a24.2,24.2,0,0,1,8.62,4.06,12.74,12.74,0,0,1,4.31,6,18.12,18.12,0,0,1,.76,7.42,19.68,19.68,0,0,1-1.14,6.72l-22.31,56.79h-27l20.28-54.51a4.48,4.48,0,0,0,.07-3.8,3,3,0,0,0-3-1.65,7.35,7.35,0,0,0-4.38,1.65,10,10,0,0,0-3.23,3.8L332,115.15H304.37l33.21-82.53H367.5A52.07,52.07,0,0,1,381.19,34.14Z"/><path d="M454.71,34.14a24.25,24.25,0,0,1,8.63,4.06,12.72,12.72,0,0,1,4.3,6,18,18,0,0,1,.77,7.42,19.68,19.68,0,0,1-1.14,6.72L445,115.15H418l20.29-54.51a4.44,4.44,0,0,0,.06-3.8,3,3,0,0,0-3-1.65,7.35,7.35,0,0,0-4.38,1.65,10.13,10.13,0,0,0-3.23,3.8l-22.18,54.51H377.89l33.22-82.53H441A52,52,0,0,1,454.71,34.14Z"/><path d="M517.72,115.15h-35a34,34,0,0,1-10.39-1.58,16.06,16.06,0,0,1-7.93-5.39q-3-3.81-3.36-10.14t3.43-15.72q.63-1.91,1.9-5.2c.67-1.77,1.56-4.1,2.66-7s2.49-6.34,4.18-10.4A45.76,45.76,0,0,1,487.42,40q9.38-7.41,22.82-7.42h.89a26,26,0,0,1,12.67,3.05,9.72,9.72,0,0,1,3-2.22,9.43,9.43,0,0,1,4.12-.83h20.28Zm-26-28q-2,4.83-1.2,6.23c.54.93,1.62,1.4,3.23,1.4a7.37,7.37,0,0,0,6.21-2.8l8-19.71,4.18-11.07a4,4,0,0,0,.06-3.87A3.45,3.45,0,0,0,509,55.7q-3.17,0-4.5,1.2a13.31,13.31,0,0,0-2.73,4.39Z"/><path d="M604.62,32.62a23.51,23.51,0,0,1,8.55,4.12,13.19,13.19,0,0,1,4.32,6,17.69,17.69,0,0,1,.76,7.35A21.26,21.26,0,0,1,617.1,57l-22.81,58.19h-27l20.79-55.9a4.19,4.19,0,0,0,.13-3.87,3.19,3.19,0,0,0-3-1.59,7.47,7.47,0,0,0-4.37,1.59,9.45,9.45,0,0,0-3.24,3.87l-22.69,55.9H527.1L565,22c.76-1.94,8.73-19.12,10.42-20.26A9.57,9.57,0,0,1,580.87,0h20.54L588.33,31.1H591A51.37,51.37,0,0,1,604.62,32.62Z"/><path d="M724.51,2q8.76.76,14,4.15a21.11,21.11,0,0,1,7.69,8.38,21.7,21.7,0,0,1,2.15,10.92,37.52,37.52,0,0,1-2.61,11.76,43.5,43.5,0,0,1-5.85,10.53,50.3,50.3,0,0,1-7.15,7.61A41.51,41.51,0,0,1,725,60.66c-2.67,1.38-5.23,2.59-7.69,3.61a12.53,12.53,0,0,1,8.77,9.84q1.68,7.53-2.31,17.53l-9.38,23.21H685.61a6,6,0,0,1-3.92-1.61q-1.92-1.62-.69-4.84L691.3,83a4.86,4.86,0,0,0-.31-4.77,4.57,4.57,0,0,0-4-2h-6.61l-15.53,38.59h-34l45.36-113h48.28ZM710.06,34.75A5.35,5.35,0,0,0,710,30a4,4,0,0,0-3.77-2h-6.15l-7.22,17.68h6.3a8.89,8.89,0,0,0,5.3-2,12.14,12.14,0,0,0,3.93-4.77Z"/><path d="M830.9,9.53q8.16,9.54,4.16,27.22a5.65,5.65,0,0,1-.23,1.15,8,8,0,0,1-.39,1.15A7.93,7.93,0,0,1,830,44.13a17.8,17.8,0,0,1-7.07,1.38H795.54l4.31-10.76a5.06,5.06,0,0,0,.07-4.77A4.14,4.14,0,0,0,796,28c-2.56,0-4.41.49-5.53,1.46a13.93,13.93,0,0,0-3.23,5.46L768,82.57c-1.54,3.89-2,6.4-1.31,7.53s2,1.69,3.92,1.69a9.63,9.63,0,0,0,5.54-1.46,11.3,11.3,0,0,0,3.69-5.3L784.32,74h28.14a8.9,8.9,0,0,1,5.38,1.38q1.85,1.38.46,4.92a24.67,24.67,0,0,1-1,2.31,23.37,23.37,0,0,0-1,2.3,97.26,97.26,0,0,1-8.53,16.76,34,34,0,0,1-9.23,9.61,28.13,28.13,0,0,1-11.22,4.31,92.45,92.45,0,0,1-14.38,1H757.41a41.11,41.11,0,0,1-12.61-1.93,19.81,19.81,0,0,1-9.68-6.53q-3.71-4.62-4.16-12.23t4-19l5.84-14.61q2.63-6.47,5.69-14.15t6.15-15.22a63.8,63.8,0,0,1,7.23-13.45,47,47,0,0,1,10-10.38,45.25,45.25,0,0,1,12.61-6.69A46.28,46.28,0,0,1,797.54,0h6.77Q822.76,0,830.9,9.53Z"/></g></g></svg>