<svg xmlns="http://www.w3.org/2000/svg" viewBox="0 0 836.37 428.38"><title>src-new-logo</title><g id="Layer_2" data-name="Layer 2"><g id="Layer_1-2" data-name="Layer 1"><path d="M74.8,321c7.38,0,13.9-.3,20.62-.11l471.74-.07c-7.31,6.92-9.46,22.36-17.76,22.66H106c-7.27.15-36.5,0-38.55,0-2.56,0-6.6,1.15-8.14,2.69a14.36,14.36,0,0,0-4.05,6.07c-.82,2.16.55,7.81,2.19,9.66a46.61,46.61,0,0,0,6.61,5.93q4.16,3.15,8.84,6.93a36.69,36.69,0,0,1,8,8.93A27.58,27.58,0,0,1,85,395.58q.76,6.78-2.92,15.87a51.08,51.08,0,0,1-6.77,12.39,30.42,30.42,0,0,1-9.3,8.09,40.29,40.29,0,0,1-12.68,4.39,96.26,96.26,0,0,1-16.91,1.31,55.6,55.6,0,0,1-19.07-2.93A27.48,27.48,0,0,1,5,426.33,23.15,23.15,0,0,1,.07,413.1q-.54-7.75,3.3-17.45H30.58A7.86,7.86,0,0,1,36,397.42q2,1.77,0,6.23a4,4,0,0,0-.38,1.08,4.91,4.91,0,0,0-.08.76,12.71,12.71,0,0,0-.38,5.23c.25,1.44,1.36,2.15,3.31,2.15a8.31,8.31,0,0,0,6.14-2.3A23.17,23.17,0,0,0,49,402.88,5.45,5.45,0,0,0,47.8,397a43.79,43.79,0,0,0-6.61-6q-4.14-3.15-8.84-7a38.58,38.58,0,0,1-8-8.92,26.88,26.88,0,0,1-4.08-11.91q-.77-6.84,2.92-15.91A51.2,51.2,0,0,1,30,334.85a30.49,30.49,0,0,1,9.3-8.07c5.86-3.57,12.57-4.7,18-5.37C64.12,320.86,68.34,321,74.8,321Z" transform="translate(0 -9.25)"/><path d="M144.38,435.93h-35A33.76,33.76,0,0,1,99,434.35,15.92,15.92,0,0,1,91.08,429q-3-3.79-3.36-10.14t3.42-15.72q.64-1.91,1.9-5.2c.68-1.77,1.56-4.09,2.66-7s2.5-6.34,4.19-10.39a45.79,45.79,0,0,1,14.2-19.72q9.38-7.41,22.81-7.41h.89a26,26,0,0,1,12.68,3,9.6,9.6,0,0,1,3-2.22,9.4,9.4,0,0,1,4.12-.82h20.28Zm-26-28c-1.36,3.23-1.76,5.3-1.21,6.24s1.63,1.4,3.23,1.4a7.4,7.4,0,0,0,6.22-2.8l8-19.72L138.81,382a4.09,4.09,0,0,0,.06-3.88,3.45,3.45,0,0,0-3.23-1.59c-2.12,0-3.62.4-4.5,1.21a13.2,13.2,0,0,0-2.73,4.39Z" transform="translate(0 -9.25)"/><path d="M262.41,353.41l-64.78,82.52H167.2l9.64-82.52h20.28a5.93,5.93,0,0,1,4.18,1.39q1.53,1.4,1.14,4.31l.13-.12-4.31,37.52,31.06-39.81a10.25,10.25,0,0,1,2.66-2.28,6.31,6.31,0,0,1,3.3-1Z" transform="translate(0 -9.25)"/><path d="M295.87,435.93h-35a33.74,33.74,0,0,1-10.39-1.58,15.92,15.92,0,0,1-7.92-5.39q-3-3.79-3.36-10.14t3.42-15.72c.42-1.27,1.06-3,1.9-5.2.68-1.77,1.56-4.09,2.66-7s2.49-6.34,4.19-10.39a45.79,45.79,0,0,1,14.2-19.72q9.38-7.41,22.81-7.41h.89a26,26,0,0,1,12.68,3,9.6,9.6,0,0,1,3-2.22,9.4,9.4,0,0,1,4.12-.82h20.28Zm-26-28c-1.35,3.23-1.75,5.3-1.2,6.24s1.63,1.4,3.23,1.4a7.4,7.4,0,0,0,6.22-2.8l8-19.72L290.3,382a4.09,4.09,0,0,0,.06-3.88,3.46,3.46,0,0,0-3.23-1.59c-2.12,0-3.62.4-4.5,1.21a13.2,13.2,0,0,0-2.73,4.39Z" transform="translate(0 -9.25)"/><path d="M381.19,354.93a24,24,0,0,1,8.62,4.06,12.7,12.7,0,0,1,4.31,6,18.05,18.05,0,0,1,.76,7.41,19.68,19.68,0,0,1-1.14,6.72l-22.31,56.79h-27l20.28-54.51a4.48,4.48,0,0,0,.07-3.8,3,3,0,0,0-3-1.65,7.35,7.35,0,0,0-4.38,1.65,10.12,10.12,0,0,0-3.23,3.8L332,435.93H304.37l33.21-82.52H367.5A51.65,51.65,0,0,1,381.19,354.93Z" transform="translate(0 -9.25)"/><path d="M454.71,354.93a24.08,24.08,0,0,1,8.63,4.06,12.67,12.67,0,0,1,4.3,6,17.88,17.88,0,0,1,.77,7.41,19.68,19.68,0,0,1-1.14,6.72L445,435.93H418l20.29-54.51a4.44,4.44,0,0,0,.06-3.8,3,3,0,0,0-3-1.65,7.35,7.35,0,0,0-4.38,1.65,10.21,10.21,0,0,0-3.23,3.8l-22.18,54.51H377.89l33.22-82.52H441A51.6,51.6,0,0,1,454.71,354.93Z" transform="translate(0 -9.25)"/><path d="M517.72,435.93h-35a33.65,33.65,0,0,1-10.39-1.58,16,16,0,0,1-7.93-5.39q-3-3.79-3.36-10.14t3.43-15.72q.63-1.91,1.9-5.2,1-2.65,2.66-7t4.18-10.39a45.79,45.79,0,0,1,14.2-19.72q9.38-7.41,22.82-7.41h.89a26,26,0,0,1,12.67,3,9.72,9.72,0,0,1,3-2.22,9.43,9.43,0,0,1,4.12-.82h20.28Zm-26-28c-1.35,3.23-1.75,5.3-1.2,6.24s1.62,1.4,3.23,1.4a7.39,7.39,0,0,0,6.21-2.8L508,393,512.14,382a4,4,0,0,0,.06-3.88,3.45,3.45,0,0,0-3.23-1.59c-2.11,0-3.61.4-4.5,1.21a13.2,13.2,0,0,0-2.73,4.39Z" transform="translate(0 -9.25)"/><path d="M604.62,353.41a23.35,23.35,0,0,1,8.55,4.12,13.16,13.16,0,0,1,4.32,6,17.69,17.69,0,0,1,.76,7.35,21.32,21.32,0,0,1-1.15,6.85l-22.81,58.18h-27L588.07,380a4.19,4.19,0,0,0,.13-3.87,3.21,3.21,0,0,0-3-1.58,7.52,7.52,0,0,0-4.37,1.58,9.51,9.51,0,0,0-3.24,3.87l-22.69,55.9H527.1L565,342.76c.76-1.94,8.73-19.12,10.42-20.27a9.57,9.57,0,0,1,5.45-1.71h20.54l-13.08,31.11H591A51,51,0,0,1,604.62,353.41Z" transform="translate(0 -9.25)"/><path d="M724.51,322.78q8.76.78,14,4.15a21.11,21.11,0,0,1,7.69,8.38,21.74,21.74,0,0,1,2.15,10.92A37.4,37.4,0,0,1,745.73,358a43.5,43.5,0,0,1-5.85,10.53,50.39,50.39,0,0,1-7.15,7.62,41,41,0,0,1-7.76,5.3c-2.67,1.38-5.23,2.59-7.69,3.61a12.53,12.53,0,0,1,8.77,9.84q1.68,7.55-2.31,17.53l-9.38,23.22H685.61a6,6,0,0,1-3.92-1.62c-1.28-1.07-1.51-2.69-.69-4.84l10.3-25.37A4.86,4.86,0,0,0,691,399a4.57,4.57,0,0,0-4-2h-6.61l-15.53,38.59h-34l45.36-113h48.28Zm-14.45,32.75a5.33,5.33,0,0,0-.08-4.76,4,4,0,0,0-3.77-2h-6.15l-7.22,17.68h6.3a8.91,8.91,0,0,0,5.3-2,12.08,12.08,0,0,0,3.93-4.77Z" transform="translate(0 -9.25)"/><path d="M830.9,330.32q8.16,9.53,4.16,27.21a5.53,5.53,0,0,1-.23,1.15,8.22,8.22,0,0,1-.39,1.16,7.91,7.91,0,0,1-4.46,5.07,17.8,17.8,0,0,1-7.07,1.39H795.54l4.31-10.77a5,5,0,0,0,.07-4.76,4.13,4.13,0,0,0-3.92-2c-2.56,0-4.41.49-5.53,1.46a13.77,13.77,0,0,0-3.23,5.46L768,403.35c-1.54,3.9-2,6.41-1.31,7.53s2,1.7,3.92,1.7a9.63,9.63,0,0,0,5.54-1.47,11.3,11.3,0,0,0,3.69-5.3l4.46-11.07h28.14a8.9,8.9,0,0,1,5.38,1.38q1.85,1.39.46,4.92a23.58,23.58,0,0,1-1,2.31,24.67,24.67,0,0,0-1,2.31,97.63,97.63,0,0,1-8.53,16.76,34,34,0,0,1-9.23,9.6,28.13,28.13,0,0,1-11.22,4.31,91.24,91.24,0,0,1-14.38,1H757.41a41.11,41.11,0,0,1-12.61-1.92,19.76,19.76,0,0,1-9.68-6.54q-3.71-4.61-4.16-12.22t4-19l5.84-14.61q2.63-6.45,5.69-14.14t6.15-15.22a63.88,63.88,0,0,1,7.23-13.46,47.15,47.15,0,0,1,10-10.37,45.25,45.25,0,0,1,12.61-6.69,46,46,0,0,1,15.07-2.39h6.77Q822.76,320.78,830.9,330.32Z" transform="translate(0 -9.25)"/><path d="M807.3,179.1c3.15.18,6.31.31,9.46.57,3.35.29,6.71.57,10,1.13a12.91,12.91,0,0,1,4.49,1.87c2.29,1.43,2.45,3.59.5,5.47a11,11,0,0,1-2.71,1.79,21.4,21.4,0,0,1-9.8,2.1c-6.74,0-13.48,0-20.22,0-2.85,0-2.85.05-3.68,3.12,1.56.93,3.23,1.82,4.79,2.87a11.56,11.56,0,0,1,3.24,15.65,6.23,6.23,0,0,1-4.19,2.81c-3.56.76-7.12,1.56-10.72,2-2,.26-2.52,1.06-2.67,2.93-.86,10.62-3.13,20.89-8,30.43a86.24,86.24,0,0,1-18,24.23c-6.38,5.91-13.49,10.11-22.61,10-13.11-.1-26.23.12-39.34.06-7,0-12.83-3.31-18.39-7-9.84-6.53-17.53-15-22.24-26a51.87,51.87,0,0,1-2.37-7,2.16,2.16,0,0,0-2.49-1.87c-5.55,0-11.11-.07-16.66,0a4.24,4.24,0,0,0-2.29.65c-3.36,2.38-7.23,2.95-11.15,3.12-6,.25-12,.35-17.89-1.44a6.32,6.32,0,0,0-1.89-.22c-5.56,0-11.11,0-16.67,0A2.57,2.57,0,0,0,583,248.1c-3.48,8-10.17,10.79-18.29,10.89-11.47.13-23,0-34.43,0a52.61,52.61,0,0,1-6.28,0c-3.32-.39-5.08.91-6.83,3.86A61,61,0,0,1,492.4,286a23.64,23.64,0,0,1-11.31,2.64c-11.75-.13-23.5-.09-35.25,0a41.56,41.56,0,0,1-18.7-4.37,10.66,10.66,0,0,0-4.4-1.06c-6.65-.11-13.31-.32-19.94,0-11.45.57-19.79-4.63-26.14-13.56a69.55,69.55,0,0,1-6-10.68,3.66,3.66,0,0,0-3.89-2.49q-36.62-.09-73.23-.3c-15.12-.08-30.24-.13-45.35-.35-14.9-.21-29.55-2.49-44.08-5.64l-8.32-1.82c-1.5,4.47-2.68,8.87-4.44,13-3.53,8.34-8.51,15.67-16.05,21a13.63,13.63,0,0,1-8.19,2.53c-11.12-.07-22.24-.28-33.34.07-6.36.2-11-2.36-15.1-6.78-6.27-6.8-10.52-14.83-13.81-23.38a116.37,116.37,0,0,1-7.24-31c-.1-1.06-.36-2.11-.56-3.27-10.59-.76-19-5.79-26.26-12.87-1.34-1.29-2.83-1-4.34-1a9.53,9.53,0,0,1-9-7.08c-.44-2-.61-4,1.36-5.66-2.06-3-4-6.05-6.2-9a3.43,3.43,0,0,0-2.33-.94c-5.36-.32-10.73-.46-16.08-.84a11.66,11.66,0,0,1-7.9-3.29c-1.63-1.68-1.61-3,.38-4.23a12.75,12.75,0,0,1,4.74-2c4.4-.67,8.85-1,13.28-1.49.62-.06,1.23-.18,2.25-.33-1.36-3.17-2.6-6.17-3.92-9.13-2-4.49-4.08-8.94-6.1-13.43a27.75,27.75,0,0,1-1-2.81,2.59,2.59,0,0,1,1-3.14c7.22-5.06,12.81-11.87,19.19-17.82a101.07,101.07,0,0,1,22.91-15.71A182.49,182.49,0,0,1,131.87,92a174.48,174.48,0,0,1,30.67-3,4.48,4.48,0,0,0,4.26-2.17c2.25-3.31,4.7-6.49,7.23-9.59a34,34,0,0,1,8.2-7.13c2.42-1.55,4.41-3.77,6.56-5.73s4.13-3.85,6.19-5.78c4.17-3.92,8.28-7.81,11.41-12.76,5-7.86,12.51-12.87,20.69-16.91A134.13,134.13,0,0,1,260.75,18a370.34,370.34,0,0,1,53.94-6.1c17.46-.83,34.93-1.48,52.39-2.13,7.37-.27,14.76-.62,22.12-.41,8.91.27,17.81,1,26.7,1.69s17.62,1.25,26.41,2.11c14.93,1.47,30,2,44.76,4.85a43.45,43.45,0,0,1,14.68,5.56,29.27,29.27,0,0,1,8.07,7.5q15,19.31,29.93,38.67a3.51,3.51,0,0,0,3.9,1.56,6.75,6.75,0,0,1,7.06,3.13,15.1,15.1,0,0,1,2.48,10.15,6,6,0,0,0,2.07,5c1.06,1.09,2.36,2.21,2.83,3.57.66,1.92,1.92,2.48,3.6,2.75l28.57,4.54a49,49,0,0,1,4.84.87c5.47,1.47,10.95,1.07,16.5.54,8.61-.83,17.24-1.38,25.87-1.9,20.2-1.19,40.41-1.46,60.63-1,16.4.39,32.76,1.25,48.86,4.75,21.85,4.76,40.73,14.87,56.23,31.16a25.71,25.71,0,0,0,5.9,4.29c4.68,2.68,9.27,5.44,13.09,9.31.63.65,1.26,1.32,1.84,2,2.41,2.9,2.5,3.92.44,7a119.7,119.7,0,0,1-15.2,18.92,23.71,23.71,0,0,1-2.35,1.86Zm-175.89-6.41c4.33.11,8.22.29,12.11.3q41.54.16,83.07.27c3,0,6,.05,9,.11a3,3,0,0,0,3-1.48c2.57-4.5,5.14-9,7.76-13.48,2.08-3.55,1.36-6.77-.9-9.92A32.07,32.07,0,0,0,734.7,139c-3.75-2.05-7.71-3.69-11.57-5.52-.79-.38-1.57-.8-2.36-1.2l.24-.62c1,0,2,0,3,0,11.64.39,23.29.74,34.93,1.21a123.27,123.27,0,0,1,26.47,3.57c9.69,2.55,17.62,7.23,22.17,16.6.9,1.84,1.39,3.49.26,5.39-2.18,3.68-4.27,7.42-6.45,11.1a19.56,19.56,0,0,1-2.91,4.26,22.75,22.75,0,0,1-4.37,2.71c.38.87.77,1.76,1.12,2.54,7.48.58,7.48.58,12.23-4.5.37-.4.79-.76,1.14-1.18,4.5-5.48,9.1-10.89,13.45-16.48,2.1-2.69,1.91-3.74-.68-6.05a54.78,54.78,0,0,0-7.34-5.66c-6.11-3.78-12.34-7.35-17.07-13a29.17,29.17,0,0,0-3.21-3C780,117.19,763.8,110,746.08,106.12a220.41,220.41,0,0,0-46.65-4.72c-18.48-.09-37,.24-55.44.88-12.81.44-25.6,1.74-38.41,2.56a31.37,31.37,0,0,1-6.49-.33c-4.5-.66-9-1.6-13.45-2.28-7.73-1.17-15.56-1.71-23.16-3.74a29.72,29.72,0,0,0-5.9-1.07c-16-.94-32-2.32-48-2.56-23.76-.36-47.54.06-71.31.23-10.65.07-21.3.35-32,.47q-29.64.33-59.28.57a62.29,62.29,0,0,1-7.09-.41,13.83,13.83,0,0,1-11.5-8.12,32.55,32.55,0,0,1-1.77-4.29q-6.33-19.2-12.58-38.4c-1.47-4.51-2.91-9-4.23-13.56-1.38-4.76.2-7.89,4.85-9.74a20.43,20.43,0,0,1,4.95-1.49c5.14-.64,10.3-1.31,15.47-1.53,15.47-.65,30.94-1.28,46.41-1.58,22.31-.43,44.61-.11,66.89,1.38Q464.21,19.5,481,20.62c3.16.21,6.32.47,9.48.71a10.52,10.52,0,0,0-4.26-1.6,772.54,772.54,0,0,0-152-7c-9.61.5-19.21,1.12-28.45,1.66-.29,2.12-.21,3.91-.81,5.43a11.23,11.23,0,0,0-.09,8q7.92,24.27,15.7,48.58c2.46,7.72,4.71,15.5,7.06,23.25a6.64,6.64,0,0,1-1.11,6.41c-2.38,3.11-4.57,6.36-6.84,9.55-3.22,4.52-6.66,8.9-9.61,13.59a20.35,20.35,0,0,0-3,15.38c4.13,20.79,8,41.64,12.07,62.45a28.93,28.93,0,0,0,2.08,6.17c.95,2.18,2.69,3.13,5.22,3.17,11.84.15,23.67.45,35.51.75,9,.23,18,.53,27,.79,1.58,0,3.16,0,5,0-.5-3.23-.9-6-1.37-8.78a166.8,166.8,0,0,1-2.42-36.18,47.46,47.46,0,0,1,3.8-17c3.7-8.49,8.68-13.41,19-12.79,8.54.52,17.12.4,25.67.72A63.25,63.25,0,0,1,449.43,145c4.42.94,8.15,3.56,11.73,6.24a103.54,103.54,0,0,1,19.7,19.59c2.18,2.78,4.31,5.59,6,7.82,4.34-.39,8.12-.8,11.9-1.06,2.09-.14,4.19,0,6.29,0h37.43c1.24,0,2.54.27,3.28-1.27,1.16-2.39,3.22-3.33,5.83-3.25.82,0,1.64-.14,2.45-.11a3.4,3.4,0,0,0,3.49-2.05c1.92-3.61,3.9-7.2,6-10.74,3-5.08,2.15-9.65-1.42-14.12a47.44,47.44,0,0,0-11.82-10.43,29.09,29.09,0,0,1-2.71-2.35,21.61,21.61,0,0,1,2.76-.51c8.37-.34,16.74-.72,25.11-.95,11.38-.31,22.76-.37,34.13-.82a24.62,24.62,0,0,1,11.84,2.63,44.7,44.7,0,0,1,5.24,2.93c5.5,3.67,9.84,8.31,12.17,14.66a8.52,8.52,0,0,1-.07,6.89c-1.87,3.94-3.85,7.83-5.8,11.74C632.53,170.61,632.06,171.46,631.41,172.69Zm-311.9,43a62.63,62.63,0,0,1-2.41-7.49C313,186.84,309,165.45,304.88,144.1A20.82,20.82,0,0,1,307,129.85a63.24,63.24,0,0,1,4.5-7.16q6.21-8.66,12.63-17.16a6.57,6.57,0,0,0,1.17-6.15c-1.29-4.55-2.41-9.15-3.86-13.66-5.76-17.84-11.62-35.66-17.42-53.49-1.44-4.41-3.17-8.83-.75-13.47a1.11,1.11,0,0,0,.07-.26,2.86,2.86,0,0,0-3-3.61,23.79,23.79,0,0,0-3.27.14c-7.23.84-14.48,1.58-21.69,2.58-14.37,2-28.47,5.07-42,10.53a14.23,14.23,0,0,0-8.11,7.59,33.15,33.15,0,0,0-2.63,7.44c-1.85,10.2-3.43,20.46-5.15,30.69-1.25,7.45-2.49,14.9-3.89,22.32-.78,4.11-2.66,5.27-6.84,4.7-2.34-.31-4.71-.5-7-1a4.84,4.84,0,0,0-5,2c-2.62,3.12-3.62,6.85-4.42,10.73-1.21,5.78-2.27,11.63-4,17.27a32.42,32.42,0,0,0-.07,19.06c4,13.7,7.94,27.45,12,41.16,1.67,5.67,3.45,11.32,5.38,16.91a8.5,8.5,0,0,0,7.72,6c3.9.31,7.82.36,11.74.45,19.84.48,39.69.91,59.54,1.42,7.83.19,15.65.58,23.48.78C310.6,215.77,315.05,215.68,319.51,215.68Zm-223.08,2.2a14.15,14.15,0,0,0,.29-1.73c.15-3.72.37-7.45.38-11.18a18.73,18.73,0,0,0-.72-4.81c-3-11.35-4.52-22.85-3.49-34.58.5-5.7,2-11.13,5.84-15.62,4.37-5.16,10.23-7.16,16.74-7.35,9.92-.3,19.84-.42,29.76-.55a21.38,21.38,0,0,1,15.91,6.66c5.83,5.81,9.88,12.81,13.4,20.13,5.11,10.61,8.76,21.78,12.19,33,1.06,3.46,1.52,7.19,5.25,9.09.21.11.25.51.46.66.5.34,1,.86,1.57.87,3.77.07,7.54,0,11,0-.89-1.47-2.35-3.1-2.92-5Q192.8,177,183.82,146.31a27.15,27.15,0,0,1,.12-14.82c1.76-6.68,3.16-13.45,4.62-20.2a32.45,32.45,0,0,1,4-10.08c1.79-2.93,4.19-4,7.58-3.37a55.84,55.84,0,0,0,7.3.94c3,.18,3.93-.65,4.43-3.56C214.48,80,217,64.7,219.64,49.47c.79-4.46,2-8.85,3.15-13.24a20.75,20.75,0,0,1,1.53-3.34c-11.64,6.21-16.73,13-19.46,25.36-1.33,6-2.69,12.07-4.24,18.06-1.38,5.32-5,8.17-10.45,9-5.66.87-11.27,2.09-16.89,3.17-.52.1-1,.32-2,.62,17,3.06,20.84,4.34,22.65,7.67a12.16,12.16,0,0,1-1.38-.22c-18.2-5.74-36.74-5.82-55.4-3.2-17.55,2.46-34.09,8.25-50.21,15.42a111,111,0,0,0-32.16,21.31c-5,4.84-9.49,10.33-15.43,14.2-1.39.91-1.48,2.08-.81,3.55q5.15,11.31,10.16,22.68a3.32,3.32,0,0,0,3.08,2.17,73.48,73.48,0,0,1,8.57,1.61,17,17,0,0,1,4.24,1.8,3.59,3.59,0,0,1,2,3.61A3.31,3.31,0,0,1,64,182.52c-1.83.54-3.72.83-5.58,1.22l-2.61.57a9.25,9.25,0,0,0,.55,1.36C61.8,194,67.7,202,75.08,208.7a36.76,36.76,0,0,0,12.29,7.49C90.22,217.23,93.15,218.33,96.43,217.88Zm301.12,26.17c-1-4.86-1.89-9.39-2.92-13.88-.11-.52-.93-1-1.52-1.23a10.57,10.57,0,0,0-2.71-.28q-38.08-1.11-76.18-2.19-31.12-.85-62.26-1.65-23.9-.63-47.79-1.26c-2.46-.07-4.91-.25-7.37-.32-2.12-.05-4.25,0-6.89,0a43.86,43.86,0,0,0,1.87,5.35c2.79,5.46,6.84,9.77,13.28,10,18.1.76,36.21,1.16,54.32,1.66,11.93.32,23.86.51,35.78.86,20.57.6,41.14,1.3,61.71,1.92,12,.37,24,.67,36,1C394.34,244.08,395.78,244.05,397.55,244.05ZM560.4,173h4l50.53-.26c3.74,0,7.47,0,11.2,0,1.23,0,2.35-.06,3-1.35,2.48-4.86,5.12-9.64,7.39-14.59a7.36,7.36,0,0,0,.1-4.71A21.57,21.57,0,0,0,627,139.6a97.53,97.53,0,0,0-10.87-5.68,11.21,11.21,0,0,0-4.72-1c-5.82,0-11.65.3-17.47.46l-39.31,1.08a12.26,12.26,0,0,0-1.33.23l2.5,1.87a42.13,42.13,0,0,1,10.63,11.24c1.95,3.12,2.74,6.38,1.21,9.86-1.76,4-3.64,7.93-5.48,11.88C561.74,170.53,561.22,171.46,560.4,173ZM513.17,81.89c-.54-1.24-.87-2.06-1.25-2.86L500.7,56,489.6,33.15c-.66-1.36-1.3-2.42-3.23-2.2-14.73,1.64-29.47,3.13-44.19,4.79-2.92.33-5.77,1.18-8.66,1.79l.08.67c2,0,4.08-.1,6.11,0,5.42.33,7.89,2.71,8.48,8.09a22.51,22.51,0,0,1,.12,2.72c0,3.1-1.2,4.47-4.34,4.87-1.71.21-3.45.13-5.17.25a18.37,18.37,0,0,0-2.28.45l14.14,26.69a32.68,32.68,0,0,1,13.16-7.19c9.22-2.3,17.72-1.08,24.94,5.54a4.71,4.71,0,0,0,3.45,1.17q8.44.22,16.88.56C510.32,81.41,511.54,81.67,513.17,81.89Zm-193-45.26c.23.89.33,1.49.53,2.06q6.28,18.06,12.59,36.1c.76,2.15,1.52,4.29,2.33,6.42,1.1,2.86,1.45,3.08,4.41,2.86,1.82-.14,3.63-.36,5.44-.56,4.33-.48,8.67-.93,13-1.47s8.8-1.44,13.22-1.69c6.91-.4,13.84-.37,20.75-.56,2.38-.07,3-.5,2.52-2.76a24.7,24.7,0,0,0-2.32-6.91,123.61,123.61,0,0,0-6.57-11c-6.46-9.72-15.13-16.06-27-17.55-11.73-1.47-23.44-3.15-35.17-4.72C322.76,36.68,321.59,36.7,320.19,36.63ZM631.46,211.72h-3.82q-35.25,0-70.49,0c-8.22,0-12-3.21-13.6-11.22-.22-1.15-.34-2.33-.49-3.5-.2-1.6-.39-3.2-.61-5l-47.12-1.22a48.9,48.9,0,0,1,2.76,6.46A48.49,48.49,0,0,1,499,204c.09.72.2,1.44.35,2.15,1.88,8.49,4.63,11.09,13.18,12.67a63.49,63.49,0,0,1,9.3,2.07,93.29,93.29,0,0,0,27.08,4.65q18.71.72,37.41,1c13.84.2,27.69.15,41.53.2.76,0,1.53-.12,2.68-.22l-5.46-6.23C627.16,217.49,629.09,214.9,631.46,211.72Zm109.06-38.38c1.1.1,1.88.23,2.66.24q22.8.42,45.59.81a32.49,32.49,0,0,0,4.62-.3,5.69,5.69,0,0,0,4.37-2.91c2.41-4.17,5-8.26,7.33-12.46a4.54,4.54,0,0,0,.65-3.31c-2-5.07-4.73-9.82-9.73-12.41a63.24,63.24,0,0,0-24.69-7.34c-12.8-.87-25.62-1.44-38.43-2.12-1.18-.06-2.36,0-3.53,0,7.44,3.24,13.22,8.3,18.16,14.39,3.48,4.29,3.59,6.94.79,11.7q-3.31,5.64-6.61,11.31C741.31,171.62,741,172.34,740.52,173.34Zm-103.7,53.89,1.07.46c.54-.85,1-1.74,1.64-2.54,2.47-3.26,5.17-6.37,7.41-9.77a87,87,0,0,0,10.91-21.94c1.26-4.07.29-6.46-3.6-8.2a27.89,27.89,0,0,0-8-2.51c-7.05-.8-14.13-1.4-21.22-1.62q-24.28-.77-48.6-1.07c-17.39-.22-34.78-.22-52.18-.26-10.1,0-20.21-.09-30.3.19-2.63.07-5.27,1.21-7.8,2.15a3.12,3.12,0,0,0-1.73,2.36,3.35,3.35,0,0,0,2,2.26,18.92,18.92,0,0,0,5.54,1.23c4.91.25,9.83.3,14.74.38,23.94.37,47.89.69,71.83,1.12,19.11.34,38.23.82,57.34,1.24,1.46,0,2.92,0,4.37.1a3.13,3.13,0,0,1,3.22,3.34,24.56,24.56,0,0,1-.63,5.12,47,47,0,0,1-6.45,14.38c-1.53,2.46-3.19,4.84-4.86,7.34ZM434.7,196c-3.29,5.17-5.29,14.38-4.57,20.38.12,1,.4,1.75,1.52,1.91,1.72.25,2.32,1.5,2.76,3,.68,2.26,1.41,4.52,2.26,6.72,1.09,2.85,2.51,5.66-.74,8.17,4.42,5.59,9.14,10.12,16.15,11.72.31-4.12.44-4.11,4.26-4.33a42.76,42.76,0,0,0,6.4-1.15c2.23-.48,3.18-.18,4.37,1.7.39.6.7,1.25,1.09,2,7.3-2.95,9-9.73,11.63-15.85-3.47-2.8-3.31-2.75-2.23-6.75.73-2.69.85-5.54,1.38-8.29.19-1,.53-2.38,1.25-2.78,2-1.11,1.81-2.73,1.62-4.47-.17-1.45-.32-2.9-.58-4.33-.77-4.2-1.67-8.35-3.88-12.15a9,9,0,0,1-2.73.86,7.48,7.48,0,0,1-3.51-.83c-2-1.18-3.79-2.77-5.77-4-2.58-1.62-2.95-2.45-2-5.38.14-.43.27-.85.4-1.26-.29-.24-.47-.5-.71-.57a20,20,0,0,0-15.33,1.54,2.29,2.29,0,0,0-1.41,2.63,5.27,5.27,0,0,1-1.25,4.57c-2,2.21-4,4.49-5.86,6.81S437.14,198.2,434.7,196ZM554.89,93.49l.16-1.1a15.83,15.83,0,0,0-2.69-.61c-6.27-.32-12.55-.71-18.83-.84-13.11-.27-26.22-.55-39.33-.54-36.53,0-73.05.15-109.57.25-11.29,0-22.59.13-33.88.18a31.82,31.82,0,0,1-4.37-.08c-6-.79-11.23-3.1-13.41-9.24-5.56-15.7-10.91-31.48-16.31-47.23a17.1,17.1,0,0,1-.87-3.71c-.23-2.17.46-3.26,2.55-3.92a22,22,0,0,1,4.54-.9c8.61-.79,17.21-1.74,25.84-2.17,14.64-.73,29.3-1.3,43.95-1.6,25.6-.52,51.18.14,76.74,1.57,7.44.41,14.87,1.24,22.3,1.88l9.18.81c-2.21-2.21-2.64-2.44-5.14-2.61C484,22.84,472.33,22,460.61,21.31c-14.46-.78-28.92-1.68-43.39-1.92-16-.27-32.05-.05-48.07.33-14.84.34-29.67,1.09-44.49,1.86a32.53,32.53,0,0,0-9.28,1.93c-4.27,1.54-5.54,4.3-4.22,8.65,2.19,7.22,4.56,14.4,6.94,21.57,3,9.15,6,18.33,9.32,27.39,3.55,9.74,7.51,12.41,17.81,12.35q29.24-.14,58.46-.46c17.94-.19,35.88-.61,53.82-.71q26.1-.15,52.19.17c13.93.17,27.86.67,41.79,1C552.62,93.51,553.75,93.49,554.89,93.49ZM464.66,251.56l-.17-.6c-.63,0-1.26,0-1.87.11-14.55,2.12-27.16-5.27-32.61-19a47.64,47.64,0,0,1-2.62-25.21c1.6-10.57,6-19.65,15-25.94,8.18-5.72,16.88-6.12,25.86-1.94.34.16.69.29,1,.44a19.73,19.73,0,0,0-7.69-6.5c-9.51-4.6-18.8-3.45-27.65,1.67-9.55,5.52-14.76,14.31-17.36,24.77-1.81,7.26-1.55,14.65-.48,22,1.57,10.71,5.58,20.34,13.65,27.88C436,255,443.09,258.76,452,257.3A28.75,28.75,0,0,0,464.66,251.56ZM727,225.1c1.3-2,2.46-3.7,3.58-5.45,5.28-8.3,10.59-16.58,13.21-26.23a16.41,16.41,0,0,1,.93-2.27,5.87,5.87,0,0,1,6-3.79c23.13,0,46.26,0,69.38,0,.93,0,1.85.09,2.77.14,0,.25,0,.5,0,.75l-11.37,1.36a42.17,42.17,0,0,0,9.77.25,29.09,29.09,0,0,0,8-2.45c1.89-.86,1.76-2.46,0-3.52a8.54,8.54,0,0,0-3-1.18,69.35,69.35,0,0,0-10-1.18q-37.14-.15-74.29,0c-6.4,0-8.67,1.72-11.15,7.64-3.23,7.72-6.56,15.39-9.93,23.05-1.12,2.56-2.49,5-3.85,7.73ZM393.69,225c.1-.73.2-1.16.21-1.6.05-3.36-.06-3.43-3.5-3.51q-10.38-.23-20.76-.51-20.34-.54-40.68-1.1c-19.38-.54-38.76-1.12-58.14-1.64-11.29-.31-22.58-.52-33.87-.78l-6.82-.17-37.13-1a5.93,5.93,0,0,0-1.63.13,3.35,3.35,0,0,0-2.25,3.36c.06,1.81,1.47,1.54,2.56,1.71a12.17,12.17,0,0,0,1.91.12q23.49.57,47,1.14c13.19.33,26.39.73,39.58,1.08l61.43,1.59q22.67.59,45.33,1.14C389.07,225,391.25,225,393.69,225Zm248.88,1.62,75.4-1.12a23.4,23.4,0,0,0-4.77-3.17c-1.29-.69-1.65-1.59-.8-2.88.45-.69.8-1.43,1.23-2.13,1.06-1.75,2.15-3.48,3.52-5.69h-3.87c-18.3.15-36.6.41-54.9.35-4,0-6.74.76-8.74,4.58C647.81,220,645.11,223.07,642.57,226.61ZM487,189.88c-.09.33-.2.52-.17.67.2.79.41,1.58.66,2.36a62.81,62.81,0,0,1-.43,41.79c-3.91,10.94-9.92,20.5-19.56,27.31-7.87,5.55-16.6,7.76-26.15,5.53-12.9-3-21.88-11.25-27.47-22.73-6.83-14-8.46-29.15-5.64-44.5,2.88-15.7,11.31-27.84,25-36.13a31.39,31.39,0,0,1,21.75-4.4c9.55,1.52,16.7,6.85,22.57,14.18,1.8,2.25,3.37,4.7,5.05,7.06,1.75-1.4,1.92-1.51.9-3a68.3,68.3,0,0,0-6-8.07c-8-8.69-17.73-13.58-29.74-13-9.49.47-17.55,4.54-24.48,10.82-12.1,10.95-18.06,24.94-19.21,41a74.81,74.81,0,0,0,5.07,33.2c4.89,12.33,12.58,22.2,25.46,26.9,10,3.65,20,3.76,29.57-1.55,10.49-5.83,17.71-14.68,22.85-25.34,5.32-11,6.84-22.79,5.68-34.87A143.54,143.54,0,0,0,490,192.64C489.73,191.17,489.07,189.84,487,189.88Zm242.49-7.68H654c5.73,2.77,12,.54,17.82,1.91-.18,4.25-.36,4.43-4.2,4.43-1.46,0-2.92,0-4.37,0a7.72,7.72,0,0,0-1.59.45l0,.8,8.6.39c-.3,3.83-.39,3.92-3.66,4-1.46,0-2.92,0-4.37.06-.37,0-.72.48-1.08.73l.15.64h7.47c-.39,4.08-.4,4.09-3.84,4.12-1.46,0-2.92,0-4.37.07a6,6,0,0,0-1.55.51l.06.77h8.35c-.18,1.15-.22,1.78-.37,2.37-.77,3.09-.8,3.11-4,3.14l-6.28,0c-1.15,0-2.19.15-2.17,2,1,0,1.87,0,2.76,0,5.37-.08,10.74-.21,16.11-.24q21-.12,42.07-.17a12.93,12.93,0,0,0,2.72-.08,7.74,7.74,0,0,0,2-1.08l-.24-.89h-7.82c.15-1,.2-1.55.3-2.08.64-3.17.65-3.15,3.88-3.17,1.36,0,2.73,0,4.09-.14a26.46,26.46,0,0,0,2.64-.45l-.09-.6c-2.91-.87-6.06.44-8.94-.68.5-3.47.54-3.51,3.69-3.53,2,0,4,0,6,0a5.52,5.52,0,0,0,1.65-.64c-.06-.28-.11-.56-.17-.83h-9.62c.29-3.87.32-3.91,3.66-3.92,1.92,0,3.83.05,5.74,0a9.27,9.27,0,0,0,2-.51l-.09-.87-9.73-.23c0-4,.3-4.3,3.59-4.3,2.19,0,4.37,0,6.56,0C728.52,184.16,729.44,183.84,729.52,182.2ZM161.18,213A84.25,84.25,0,0,0,155,181.66c-2.79-6.72-6.53-12.84-12.42-17.33-7.73-5.9-16.93-5.57-24.29.73s-11.37,14.77-14.12,23.85A91,91,0,0,0,100.68,220a80.58,80.58,0,0,0,6.87,29.59,41.26,41.26,0,0,0,10,14.17c7.82,7,17.07,7.38,25.35,1,5.72-4.42,9.29-10.43,12-16.95C159.39,237.09,161.16,225.92,161.18,213ZM793.9,192.48c-5.79-1-6.12-.9-8.5,3.18-1.78,3.07-3.58,6.13-5.22,9.27a11.06,11.06,0,0,1-8.21,6.14,58.47,58.47,0,0,1-8.66.91c-7.19.17-14.38.2-21.56.17a3.5,3.5,0,0,0-3.48,2c-1.75,3.09-3.68,6.07-5.51,9.11-.34.57-.56,1.21-1,2.13,7.29-.2,14.19-.46,21.09-.55a47.68,47.68,0,0,0,18.76-4.22c4.35-1.93,8.71-3.72,13.54-3.93a3.9,3.9,0,0,0,1.13-.53c-.41-1.43-.85-2.79-1.2-4.18-1.71-6.87,1.56-14,6.37-16.38C792.39,195.11,792.91,193.79,793.9,192.48ZM423.91,39.8a8.94,8.94,0,0,1-1.7.54c-3.64.28-7.27.47-10.9.77-4.9.41-6.57,2.17-6.85,7.06-.2,3.35.62,4.33,4,4.31,10,0,20-.16,30.06-.29,1.63,0,3.26-.23,4.9-.34a2.83,2.83,0,0,0,2.66-2c1.59-4.17-1.67-9.27-6.08-9.46-2.64-.11-5.28-.18-7.92-.23a2,2,0,0,1-2.2-1.9,22.62,22.62,0,0,0-1.33-4.43,3.23,3.23,0,0,0-4-1.51c-1.77.52-1.39,1.84-1.21,3.11C423.57,36.87,423.73,38.29,423.91,39.8ZM571,191.05a3.1,3.1,0,0,1-3.55,2.35c-2.09-.09-4.19-.08-6.28,0-1.63.06-3-.17-3-1.85-.93.57-1.73,1.44-2.6,1.52-2.23.21-4.5.07-6.53.07-.87-1-.59-3-2.5-2-.47,9.65,5.52,16.18,14.75,15.91,6.45-.18,12.92,0,19.37.1,17.11.19,34.21.38,51.31.67,2.15,0,3.49-.63,4.11-2.66.87-2.87,1.78-5.73,2.56-8.62a18.46,18.46,0,0,0,.26-3.21c-1,.47-1.9,1.17-2.27,1-1.74-.95-3.33.16-5,.1-2.55-.09-5.09-.12-7.64-.22-.71,0-1.66,0-2.06-.36-.68-.69-1-.79-1.69-.09a2.9,2.9,0,0,1-1.81.36c-2.54,0-5.1,0-7.64-.11a12.29,12.29,0,0,1-2.88-.9c-1.95,1.27-10.48.92-11.82-.49-3.46,2-7.14.71-10.61.93-.79.06-1.65-.83-2.08-1.07a15.34,15.34,0,0,1-3.37,1.1c-2.17.15-4.36,0-6.55,0C571.9,193.58,570.78,193.26,571,191.05ZM534.22,88.41l.34-.48L500.34,42.61c0,.85-.09,1.15,0,1.36,5.88,12.8,11.75,25.61,17.71,38.38a3.87,3.87,0,0,0,2.11,1.87C524.82,85.71,529.53,87,534.22,88.41Zm250.6,102.05a10.14,10.14,0,0,0-1.66-.28c-5.55.36-11.08-.39-16.64,0-4.95.31-9.92.1-14.89.08a4.62,4.62,0,0,1-1.84-.33c-1.42-.62-1.9.25-1.93,1.32a4.68,4.68,0,0,1-1.17,3.14c-.61.75-.14,2.3-.44,3.42a13,13,0,0,1-1.54,2.69c2,3.66-1.61,5.15-3.89,7.17.48.3.63.47.77.47,9,0,18,0,27-.12,2.78,0,5.55-.94,7.2-3.36C778.86,200.14,781.65,195.47,784.82,190.46ZM27.36,178.16a11.09,11.09,0,0,0,7.83,3.13c7,.36,14,.49,21,.5a20.58,20.58,0,0,0,6.14-1.11c1.95-.63,2-2.29.29-3.43a7.92,7.92,0,0,0-2.5-1c-1.86-.43-3.76-.72-5.63-1.07a55,55,0,0,0-22.49.42C30.34,176,28.6,176.29,27.36,178.16ZM742.05,227.9l-.72-.65c-.55.52-1.29.95-1.6,1.58a22.61,22.61,0,0,0-.79,2.88c-3.71,11.14-10.31,19.61-21.85,23.38a37.86,37.86,0,0,1-19.16,1c-7.25-1.41-13.27-4.86-17.33-11.28-1.26-2-2.1-2-4.59-.39.36.77.69,1.6,1.12,2.37a20.3,20.3,0,0,0,10,8.59c9,4,18.4,4,27.86,2.32a30.77,30.77,0,0,0,18.55-11.2A41.87,41.87,0,0,0,742.05,227.9ZM200,57.7l-.57-.42c-8.39,8.1-17.56,15.43-24.52,25a60,60,0,0,0,15.72-3.54,7.92,7.92,0,0,0,5-6.71c-3.53-1.37-6.61.36-9.83.77a2.32,2.32,0,0,1,.94-1c2.8-1.27,5.64-2.45,8.42-3.75.92-.43,2.17-1,2.45-1.78C198.6,63.5,199.25,60.58,200,57.7ZM485.1,83.47a9.64,9.64,0,0,0-5.75-4.31c-9.34-2.71-17.76-.79-25.19,5.43-.48.4-1,1.37-.83,1.75a2.44,2.44,0,0,0,1.77,1.28,47.39,47.39,0,0,0,8.85-1c4.76-1.21,9.44-2.58,14.4-2.69C480.48,83.92,482.61,83.66,485.1,83.47Zm318,124a23.24,23.24,0,0,0-1.1-4.51c-1.44-3.15-4.2-3.67-6.87-1.49s-3.51,6.55-1.87,10a4.59,4.59,0,0,0,4.27,2.84,4.42,4.42,0,0,0,4.4-2.62A25.09,25.09,0,0,0,803.14,207.45Zm-599.33-153-.55-.21c-.34,1-.7,2-1,3-1.5,5.25-3,10.5-4.49,15.74-1.37,4.68-4,8-9.22,8.84S178,84,172.8,85.13a27.78,27.78,0,0,0-2.88,1l.16.58c.58-.07,1.17-.09,1.73-.21,6.05-1.28,12.07-2.69,18.14-3.84,4.6-.88,7.15-3.7,8.38-8,1-3.49,1.87-7,2.82-10.54C202,60.89,202.92,57.67,203.81,54.44Zm510.62,193.8c2.35,2.76,3.66,3,6.43,1.25,1-.62,1.92-1.36,2.92-2,2.77-1.75,3-3,1.1-5.79Zm81.92-50.87c-1.47.15-2.49,0-3.24.38a8.6,8.6,0,0,0-4.39,4.66,14.58,14.58,0,0,0,1.1,12.61c.83,1.53,1.92,1.58,3.31.74C788.21,208.54,789,203.78,796.35,197.37ZM550.53,83.45c.76-6.61-2.81-11-7.81-9.66ZM60,195.78c-1.12,5.42,2.61,9.29,7.29,8.25Z" transform="translate(0 -9.25)"/><path d="M614.41,106.65a1224.53,1224.53,0,0,1,163,25.88c-43.26-7-86.37-15-130-20.11,4.44,1.82,9,3.45,13.31,5.51a170.46,170.46,0,0,1,15.43,8.13,16.85,16.85,0,0,1,5,5.57c1.33,2.14.41,3.86-2.08,4.07a21.91,21.91,0,0,1-7-.47c-11-2.67-21.83-5.72-32.82-8.27-16.94-3.93-34-7.1-51.28-9.34-13.62-1.78-27.26-3.44-40.93-4.75-8.69-.84-17.44-1-26.17-1.32a34.19,34.19,0,0,0-4.9.47c.33,2.32,2,2.82,3.29,3.74,3.45,2.51,7.13,4.76,10.31,7.57a131.92,131.92,0,0,1,11.59,12c-21.62-18-46.4-29.11-73.89-34.48l.16-.63c1.73.13,3.46.2,5.18.4q17.36,2,34.69,4.14c19.15,2.35,38.31,4.57,57.43,7.17,19.83,2.69,39.65,5.5,59.39,8.76a312.19,312.19,0,0,1,47.68,11.73,24.76,24.76,0,0,0,3.94,1.09,6.67,6.67,0,0,0,2.21-.46c-.2-.74-.16-1.78-.64-2.18a52.46,52.46,0,0,0-6.52-4.91c-11.58-7-24.27-11.18-37.3-14.38-6.35-1.57-12.77-2.85-19.16-4.26Z" transform="translate(0 -9.25)"/><path d="M335.14,203.2c-.08-1.66-.16-2.55-.16-3.45q0-19.25,0-38.5c0-3.46,0-3.49,3.5-3.45,6.74.07,5.84-.93,5.87,6,0,10.56,0,21.12.06,31.68,0,2.12-.63,3.38-2.58,4.23C339.71,200.63,337.71,201.84,335.14,203.2Z" transform="translate(0 -9.25)"/><path d="M351.68,157.94c.09,1.29.2,2.18.2,3.07,0,11.28-.07,22.56.06,33.84,0,2.51-.66,4.17-3,5.17-1.05.45-2,1.11-3.48,1.93-.09-1.38-.22-2.32-.22-3.26q0-18.84,0-37.67c0-3.23.06-3.28,3.41-3.24C349.58,157.79,350.48,157.87,351.68,157.94Z" transform="translate(0 -9.25)"/><path d="M353.06,201.88c-.09-1.25-.2-2-.2-2.84,0-12.74,0-25.48,0-38.21,0-1,.4-2.67.86-2.76a12.47,12.47,0,0,1,4.79.16c.36.07.57,1.6.58,2.45.05,5.1,0,10.19,0,15.29,0,6.37-.12,12.74,0,19.1.07,2.44-.67,4-2.84,5C355.34,200.52,354.38,201.15,353.06,201.88Z" transform="translate(0 -9.25)"/><path d="M366.69,201.57c-.05-1.14-.12-2-.13-2.92q0-18.83,0-37.66c0-2.93.12-3.08,2.1-3.2,2.59-.16,3.72.63,4,2.94a20.5,20.5,0,0,1,.08,2.72V194C372.79,198.74,372,199.81,366.69,201.57Z" transform="translate(0 -9.25)"/><path d="M360.15,201.72V158.26a3.56,3.56,0,0,1,.68-.36c4.55-.83,4.86-.58,4.86,3.94,0,10.73-.24,21.47.12,32.18C366,198.28,363.88,200.05,360.15,201.72Z" transform="translate(0 -9.25)"/><path d="M228.9,99.53c-1.55.08-3.09.19-4.64.21-4.09.06-6-1.68-5.78-5.75.28-4.25.93-8.5,1.63-12.71q2.92-17.49,6-34.95a57.56,57.56,0,0,1,2-7.37,11,11,0,0,1,9-7.84q7.25-1.32,14.56-2.23c10.29-1.28,20.59-2.44,30.89-3.63,3.52-.4,7.05-.8,10.58-1.06s6.25,1.72,7.59,5.47c1.16,3.25,2.17,6.56,3.21,9.86,4.5,14.32,9,28.63,13.45,43a22.4,22.4,0,0,1,1.09,6.68c0,4.3-2.4,6.4-6.68,6.59q-31.64,1.41-63.26,2.86c-6.54.3-13.08.66-19.63,1ZM245,96.63v.09c7.81-.36,15.63-.74,23.44-1.09l40.9-1.79a25.4,25.4,0,0,0,3.25-.34c2.57-.48,3.81-1.67,3.67-4.25a31.4,31.4,0,0,0-1.31-7.19c-2.56-8.44-5.25-16.85-8-25.25s-5.37-16.61-8.09-24.91c-1.56-4.79-3.39-5.87-8.31-5.29-8.85,1-17.71,1.93-26.56,3-7.67.93-15.33,2-23,3.06-8.09,1.16-10.25,3.66-12.44,12.25,0,.09,0,.18,0,.27-2.33,13.72-4.7,27.42-7,41.15a59.07,59.07,0,0,0-.75,7.86c0,2.1.84,3,2.88,3.31a12.53,12.53,0,0,0,2.45.06C232.42,97.28,238.69,97,245,96.63Z" transform="translate(0 -9.25)"/><path d="M198.81,122.67c1.3,3.24,1.16,4.13-.78,5.51a4.33,4.33,0,0,1-5.74-.31,3.24,3.24,0,0,1-1.11-1.81c0-1.62,0-3.09-1.14-4.48-.26-.32.43-2,1.06-2.33a7.64,7.64,0,0,1,3.42-.68,109.24,109.24,0,0,1,11.73.06,38,38,0,0,1,7.85,2.05c.87.27,2.22.86,1.49,2.07a6.1,6.1,0,0,1-2.74,1.82c-.35.16-1-.28-1.5-.51C206.43,121.72,204.62,121.51,198.81,122.67Z" transform="translate(0 -9.25)"/><path d="M195.31,136a7.31,7.31,0,0,1-.71,2.35,2.81,2.81,0,0,1-2.08,1.28,2.48,2.48,0,0,1-1.65-1.76,10.15,10.15,0,0,1,.61-4.16c.24-.64,1.51-1.48,2-1.31.72.24,1.21,1.29,1.7,2C195.36,134.74,195.26,135.18,195.31,136Z" transform="translate(0 -9.25)"/><path d="M531.39,216.6c-5.76,0-8.71-2.6-9.37-8.33-.81-7,4.66-12.55,11.49-11.58a7.14,7.14,0,0,1,6.3,5.25,16,16,0,0,1,.05,9.4C538.76,215.06,536.23,216.58,531.39,216.6Zm7.07-9.64a31,31,0,0,0-.78-4c-1.35-4-5.34-4.9-8.36-1.91-2.7,2.67-3.15,7.84-.7,10.74a5.88,5.88,0,0,0,3.41,1.87C535.83,214.21,538.28,211.47,538.46,207Z" transform="translate(0 -9.25)"/><path d="M437.64,213.59c.31-6.45,2.32-12.72,8.21-17.08a13.36,13.36,0,0,1,17.5,1.09c8.73,8.08,8.94,24.21.42,32.58-6,5.92-14.62,5.74-20.33-.52C439.46,225.29,437.79,220,437.64,213.59Zm11.58,11.82c3.69,5.19,9,4.66,11.89,1.25a15.83,15.83,0,0,0,3.1-5,22.92,22.92,0,0,0-1.15-16.73,14.35,14.35,0,0,0-2.32-3.35,6.86,6.86,0,0,0-6.87-2.35c-3.11.57-5.3,2.43-7.07,5.15,7.78-.75,11.55,1.85,12.33,8.48C459.79,218.38,458.61,224.49,449.22,225.41Zm5.58-11.69a13.33,13.33,0,0,0-.25-1.73,5.36,5.36,0,0,0-4.37-4.3c-2.49-.45-4.18.79-5.44,2.74a7.34,7.34,0,0,0,1.36,9.15,5.9,5.9,0,0,0,2.92,1.2C452.44,221.1,454.83,218.26,454.8,213.72Z" transform="translate(0 -9.25)"/><path d="M667.87,206.33c.62-5.43.62-5.42,5.43-5.42h5.54a39.63,39.63,0,0,1-.9,4.23,1.87,1.87,0,0,1-1.29,1.14C673.79,206.38,670.92,206.33,667.87,206.33Z" transform="translate(0 -9.25)"/><path d="M683.24,183.74c-.21,4.47-.52,4.79-4.22,4.79H673c-.15-4.31.29-4.79,3.94-4.79C679,183.73,681,183.74,683.24,183.74Z" transform="translate(0 -9.25)"/><path d="M690.19,205.92a6,6,0,0,1,0-1c.82-4,.82-4,4.9-4h5.08c.77,3.87-.32,5.31-3.83,5.33-1.73,0-3.46,0-5.19,0A5.78,5.78,0,0,1,690.19,205.92Z" transform="translate(0 -9.25)"/><path d="M679.09,206.27c.28-1.38.48-2.25.62-3.12a2.36,2.36,0,0,1,2.78-2.25c2.32.09,4.64,0,7.17,0a17.59,17.59,0,0,1-.2,2.23c-.7,3.1-.71,3.1-3.93,3.11Z" transform="translate(0 -9.25)"/><path d="M701,206.15a36.56,36.56,0,0,1,1.09-4,1.94,1.94,0,0,1,1.3-1.12c2.69-.11,5.38,0,8.44,0a35.16,35.16,0,0,1-1,4.07,1.94,1.94,0,0,1-1.38,1.07C706.76,206.2,704.07,206.15,701,206.15Z" transform="translate(0 -9.25)"/><path d="M694.16,183.85c-.14,4.33-.47,4.66-4,4.68h-5.87c0-4.31.57-4.85,4.06-4.69C690.18,183.92,692.07,183.85,694.16,183.85Z" transform="translate(0 -9.25)"/><path d="M705,184.33c.32,3.57-.19,4.19-3.43,4.2h-6.15c-.41-3.85.16-4.54,3.4-4.54,1.82,0,3.64,0,5.46.07A2.58,2.58,0,0,1,705,184.33Z" transform="translate(0 -9.25)"/><path d="M715.84,184.05c.17,4.16-.09,4.47-3.4,4.48-1.81,0-3.62,0-5.43-.05a3,3,0,0,1-.74-.21c-.51-3.37.14-4.2,3.27-4.21C711.59,184,713.65,184.05,715.84,184.05Z" transform="translate(0 -9.25)"/><path d="M669.74,199.35c.2-3.79.27-3.86,3.69-3.88h6.68c-.22,4-.33,4.16-3.71,4.19-1.9,0-3.8,0-5.7,0A5.26,5.26,0,0,1,669.74,199.35Z" transform="translate(0 -9.25)"/><path d="M671.26,194.12c.26-4,.34-4.07,3.54-4.08h6.69c.09,3.68-.25,4.07-3.29,4.09C675.89,194.14,673.58,194.12,671.26,194.12Z" transform="translate(0 -9.25)"/><path d="M713,195.48c-.11,3.8-.28,4-3.51,4-2.14,0-4.29,0-6.41,0,0-3.69.28-4,3.2-4C708.54,195.46,710.78,195.48,713,195.48Z" transform="translate(0 -9.25)"/><path d="M704.47,194.09c.47-4,.54-4,3.59-4.05,2.14,0,4.28,0,6.4,0,.07,3.64-.29,4-3.38,4.06C708.94,194.11,706.8,194.09,704.47,194.09Z" transform="translate(0 -9.25)"/><path d="M691.11,195.9c-.41,3.62-.48,3.69-3.72,3.72h-6.11c0-4,.17-4.13,3.54-4.14,1.81,0,3.61,0,5.41.07A3.35,3.35,0,0,1,691.11,195.9Z" transform="translate(0 -9.25)"/><path d="M703.58,190c-.23,3.94-.33,4.05-3.62,4.07-2.05,0-4.11,0-6.11,0-.41-3.38.08-4,2.81-4.06C698.9,190,701.14,190,703.58,190Z" transform="translate(0 -9.25)"/><path d="M692.16,199.57c.14-3.88.3-4.07,3.43-4.09h6.17c.24,3.63-.11,4.06-3.16,4.09C696.46,199.59,694.31,199.57,692.16,199.57Z" transform="translate(0 -9.25)"/><path d="M692.41,190c.09,3.74-.2,4.07-3.33,4.09-2.07,0-4.14,0-6.16,0-.46-3.34.05-4,2.78-4.08C687.94,190,690.19,190,692.41,190Z" transform="translate(0 -9.25)"/><path d="M102.59,214.76a81.08,81.08,0,0,1,5.49-30.35,41.29,41.29,0,0,1,9.5-14.84c8.51-8.17,18.78-8,27.05.49a42.14,42.14,0,0,1,9.05,14.51,83.46,83.46,0,0,1,5.07,37.54,76.6,76.6,0,0,1-5.46,23.56,44.68,44.68,0,0,1-8.22,13.13c-8.36,9.11-19.68,9.26-28.23.29A44.08,44.08,0,0,1,108,244.75,81.1,81.1,0,0,1,102.59,214.76Zm39.72-35.7c-5-7.74-12.88-8.24-18.19-4.95-7.14,4.44-11.38,11-13.48,18.87-4.26,15.92-2.88,31.58,3.43,46.74a30,30,0,0,0,10.43,13.42c6.44,4.49,16.44,2.05,19.63-4.75-1.35-.17-2.72-.23-4-.52-5.56-1.22-9.42-4.79-12-9.61-7.94-15.14-8.07-30.75-1.74-46.38C129.19,185,134,179.9,142.31,179.06ZM140,181.93a11.24,11.24,0,0,0-2.33.77c-4.11,2.64-8.12,5.35-7.56,11.21a10,10,0,0,1-.59,3.18c-.55,2.21-1.16,4.39-1.7,6.59-.43,1.73-.39,3.58-2.31,4.69-.55.32-.77,1.64-.72,2.48.25,4.25.54,8.51,1,12.74.23,2,.47,4.2,2.85,5.19.46.19.63,1.05.94,1.6,1.15,2.05,2.23,4.15,3.48,6.13.86,1.35,1.59,2.61,1.24,4.3a2.48,2.48,0,0,0,.33,1.73c1.72,2.4,6.89,4.11,9.34,3.43.45-1.8.44-3.69,1.34-4.91a11.78,11.78,0,0,1,4.47-3.46,4.12,4.12,0,0,0,2.48-3.27,114,114,0,0,0,1.9-11.53,67.62,67.62,0,0,0-4.7-31.53c-.6-1.46-1.18-2.71-3.12-2.93a33.4,33.4,0,0,1-4.63-1.37c-2.23-.57-2.78-1.46-2.15-3.73C139.72,182.93,139.82,182.62,140,181.93Z" transform="translate(0 -9.25)"/><path d="M593.87,200.12a19.4,19.4,0,0,1-.66,3.58,2.18,2.18,0,0,1-1.52,1.22c-3.4.11-6.81.06-10.58.06a21.48,21.48,0,0,1,.54-3.61c.19-.56.92-1.31,1.42-1.32C586.57,200,590.06,200.07,593.87,200.12Z" transform="translate(0 -9.25)"/><path d="M568,204.71a16.69,16.69,0,0,1,.78-3.47,2.54,2.54,0,0,1,1.7-1.31c3.24-.13,6.48-.06,10.1-.06a21.63,21.63,0,0,1-.39,3.75,2.07,2.07,0,0,1-1.49,1.23C575.33,204.9,571.92,204.78,568,204.71Z" transform="translate(0 -9.25)"/><path d="M619.29,205.49c-.1-4.57.28-5,3.9-4.94,2.6,0,5.2,0,7.7,0,.79,3.84-.06,4.92-3.41,4.92Z" transform="translate(0 -9.25)"/><path d="M568.16,200a24,24,0,0,1-.72,3.24c-.18.51-.77,1.23-1.19,1.23-3.49,0-7-.06-10.4-.13-.39-4.28.11-4.85,3.79-4.74C562.33,199.66,565,199.82,568.16,200Z" transform="translate(0 -9.25)"/><path d="M606.79,205.07c-.25-4.24.14-4.7,3.6-4.69h8c.44,4.29-.15,5.05-3.64,5C612.15,205.35,609.54,205.18,606.79,205.07Z" transform="translate(0 -9.25)"/><path d="M594.72,194.44c.18,4.2-.12,4.55-3.47,4.55h-8.57c-.32-3.94.2-4.55,3.46-4.55Z" transform="translate(0 -9.25)"/><path d="M606.24,200.55a13,13,0,0,1-.66,3.08c-.3.61-1.05,1.38-1.63,1.41-3.14.14-6.29.07-9.49.07a7,7,0,0,1-.18-1.44c.44-3.54.6-3.67,4.28-3.51C601,200.26,603.39,200.4,606.24,200.55Z" transform="translate(0 -9.25)"/><path d="M620.53,199.37c.32-4.37.35-4.4,3.94-4.38H633c-.2,4.25-.54,4.6-4,4.55C626.25,199.5,623.48,199.43,620.53,199.37Z" transform="translate(0 -9.25)"/><path d="M557,198.54c.41-4.37.52-4.49,3.86-4.48,2.79,0,5.57.07,8.31.11.26,3.91-.13,4.37-3.34,4.37Z" transform="translate(0 -9.25)"/><path d="M607.88,199c0-4.14.38-4.51,4-4.31,2.61.15,5.23.24,7.8.36.39,3.69-.1,4.31-3.45,4.26C613.42,199.31,610.64,199.15,607.88,199Z" transform="translate(0 -9.25)"/><path d="M595.7,199.07c-.17-4.27.07-4.53,3.59-4.52,2,0,4,0,6,.08.92,0,1.84.07,1.93,1.36.09,1.54-.72,3-1.95,3C602.1,199.13,599,199.07,595.7,199.07Z" transform="translate(0 -9.25)"/><path d="M581.67,194.34c-.14,4.39-.26,4.56-3.8,4.48-2.59,0-5.17-.25-7.73-.38,0-3.92.26-4.15,3.53-4.11C576.28,194.36,578.88,194.34,581.67,194.34Z" transform="translate(0 -9.25)"/><path d="M548.43,194.22h8.5c-.61,1.56-.82,3.5-1.57,3.74a9.22,9.22,0,0,1-5.28,0C549.31,197.71,549.07,195.78,548.43,194.22Z" transform="translate(0 -9.25)"/><path d="M635.82,201.19c-.72,4.15-1.11,4.52-3.84,3.89C631.81,201.22,632.63,200.35,635.82,201.19Z" transform="translate(0 -9.25)"/><path d="M633.66,199.16c-.22-3.48.44-4.21,3.41-3.81C637.81,199,636.88,200,633.66,199.16Z" transform="translate(0 -9.25)"/><path d="M551,199.48l4.37.24-.74,3.29c-2.19,0-3.1-1.32-3.94-2.71Z" transform="translate(0 -9.25)"/><path d="M781.77,191.28c-2.64,4.54-4.7,8.57-8,11.71a9.93,9.93,0,0,1-7.49,2.55c-.48-3.69.1-4.4,3.37-4.58a16.83,16.83,0,0,0,2.59-.55l-.1-.62-4.42-.31c-.26-3.74.28-4.33,3.72-4.35h4l0-.88h-6.17c-.31-1.6-.13-2.84,1.17-2.91C774,191.17,777.58,191.28,781.77,191.28Z" transform="translate(0 -9.25)"/><path d="M765.05,201c.06,4.17-.4,4.75-3.77,4.9-1.95.09-3.91,0-6.27,0a17.75,17.75,0,0,1,.89-3.53,2.56,2.56,0,0,1,1.72-1.33C760,200.88,762.46,201,765.05,201Z" transform="translate(0 -9.25)"/><path d="M766.7,195.56c-.26,3.91-.42,4.08-3.83,4.09H757c0-4.07.35-4.53,3.64-4.53,1.71,0,3.42,0,5.13.1A3.68,3.68,0,0,1,766.7,195.56Z" transform="translate(0 -9.25)"/><path d="M745.77,205.47c.11-.76.23-1.54.32-2.33.2-1.78,1.15-2.43,2.95-2.27s3.58,0,5.34,0c.33,4.1-.47,5-4.15,5.07-1.18,0-2.36,0-3.53-.1A4.09,4.09,0,0,1,745.77,205.47Z" transform="translate(0 -9.25)"/><path d="M756.2,195.6c-.35,4-.43,4-4.06,4-1.26,0-2.53,0-3.79-.06a3.08,3.08,0,0,1-.73-.22c-.28-3.58.29-4.26,3.61-4.26,1.44,0,2.89.05,4.33.13C755.78,195.24,756,195.48,756.2,195.6Z" transform="translate(0 -9.25)"/><path d="M767.64,191.2c.4,1.88,0,2.85-1.55,2.9-2.51.07-5,0-7.51,0,0-2.7,0-2.85,2.15-2.9C763.05,191.16,765.37,191.2,767.64,191.2Z" transform="translate(0 -9.25)"/><path d="M748.9,194.17c-.21-2.2.48-3,2.24-3,2,0,3.92,0,5.94,0,.38,2-.06,3-1.88,3C753.15,194.18,751.1,194.17,748.9,194.17Z" transform="translate(0 -9.25)"/><path d="M291.84,28.41a26.52,26.52,0,0,1,0,3.11c-1.29,10.56-2.72,21.1-3.92,31.67-1,8.85-1.78,17.73-2.59,26.6-.37,4.07-.29,4-4.25,4.2q-24.4.92-48.81,1.86c-1.82.07-3.63.29-5.45.33-3.87.08-5-1-4.42-4.93.65-4.78,1.48-9.53,2.27-14.28,1.57-9.51,3.14-19,4.8-28.51a67.77,67.77,0,0,1,1.84-7.4,8.84,8.84,0,0,1,7.39-6.47c3.84-.7,7.71-1.32,11.58-1.78,12.73-1.51,25.47-2.94,38.21-4.38A31.2,31.2,0,0,1,291.84,28.41ZM231.66,64.79c3.85.22,7.19.49,10.54.59a363.69,363.69,0,0,1,40.24,3.23c2.26.32,2.47.07,2.73-2.17q1.27-10.83,2.63-21.67c.38-3.12.79-6.24,1.21-9.53-1.05-.09-1.75-.23-2.45-.21-9.56.22-19.11.41-28.66.72-3.73.12-7.46.4-11.16.84-7.31.87-9.81,3-11.62,10.23-1.08,4.32-1.89,8.71-2.77,13.08C232.05,61.4,231.92,62.92,231.66,64.79Z" transform="translate(0 -9.25)"/><path d="M287.59,92.47c1.7-21.08,2.57-42,7.13-62.93a5.61,5.61,0,0,1,3.3,4q1.73,5.17,3.3,10.4,6.31,20.89,12.6,41.79c1.28,4.22.05,6-4.36,6.23-6.81.3-13.63.54-20.45.8A11.48,11.48,0,0,1,287.59,92.47Zm9.33-54.42h-.57l-3.83,33.11a43.85,43.85,0,0,1,17.64,11.15Z" transform="translate(0 -9.25)"/><path d="M127.14,215A30.57,30.57,0,0,1,131,199c3.41-5.81,9.41-6.11,13.46-.65,2.52,3.41,3.53,7.36,4.15,11.42a33.64,33.64,0,0,1-.42,13,16.92,16.92,0,0,1-4.05,7.91c-3.38,3.6-10.31,4.69-13.86-1.51C127.75,224.74,127.22,219.92,127.14,215Zm7.6,9.06a25.7,25.7,0,0,0,2.18,2.46c3,2.64,6.44,1.9,7.81-1.88,2.31-6.39,1.88-12.88-.06-19.25a12.77,12.77,0,0,0-2.79-4.56,3.67,3.67,0,0,0-5-.51,6.73,6.73,0,0,0-3.36,5.22c5.6,1.14,7.72,3.49,8,8.71C141.82,219.59,139.86,222.52,134.74,224Zm1-9.55a26.27,26.27,0,0,0-1.55-4.61c-1-1.84-2.68-1.75-3.92-.05-1.62,2.23-1.6,7.09,0,9.36,1.3,1.81,3,1.81,4-.21A27.82,27.82,0,0,0,135.7,214.48Z" transform="translate(0 -9.25)"/></g></g></svg>