<svg xmlns="http://www.w3.org/2000/svg" viewBox="0 0 248.81 113.54"><title>SRC</title><g id="Layer_2" data-name="Layer 2"><g id="Layer_1-2" data-name="Layer 1"><path d="M227.07,35.62q5.94,6.95,3,19.82a4.11,4.11,0,0,1-.17.84,7.15,7.15,0,0,1-.28.84,5.76,5.76,0,0,1-3.25,3.69,13,13,0,0,1-5.15,1H201.32L204.46,54a3.67,3.67,0,0,0,0-3.47,3,3,0,0,0-2.85-1.46,6.12,6.12,0,0,0-4,1.07,10.06,10.06,0,0,0-2.35,4l-14,34.71c-1.11,2.84-1.43,4.66-.95,5.48a3,3,0,0,0,2.86,1.24,7,7,0,0,0,4-1.07,8.16,8.16,0,0,0,2.68-3.86l3.25-8.06h20.49a6.41,6.41,0,0,1,3.92,1c.89.67,1,1.86.33,3.58a16.31,16.31,0,0,1-.72,1.68,14.39,14.39,0,0,0-.73,1.68,70,70,0,0,1-6.22,12.2,24.82,24.82,0,0,1-6.71,7,20.52,20.52,0,0,1-8.18,3.13,66,66,0,0,1-10.46.73H173.56a30,30,0,0,1-9.18-1.4,14.4,14.4,0,0,1-7-4.76,15.35,15.35,0,0,1-3-8.9q-.33-5.53,2.91-13.82L161.47,74q1.91-4.71,4.14-10.3t4.48-11.08a45.88,45.88,0,0,1,5.26-9.8,34.22,34.22,0,0,1,7.28-7.56,33.11,33.11,0,0,1,9.18-4.87,33.64,33.64,0,0,1,11-1.73h4.92Q221.14,28.68,227.07,35.62Z"/><path d="M147.88,30.08a22.25,22.25,0,0,1,10.19,3,15.33,15.33,0,0,1,5.59,6.1,15.79,15.79,0,0,1,1.57,7.95,27.05,27.05,0,0,1-1.9,8.57,32,32,0,0,1-4.26,7.66,37,37,0,0,1-5.2,5.55,30.38,30.38,0,0,1-5.66,3.86c-1.94,1-3.8,1.88-5.59,2.63A9.12,9.12,0,0,1,149,82.58q1.23,5.49-1.68,12.77l-6.83,16.9H119.56a4.42,4.42,0,0,1-2.86-1.17c-.93-.79-1.1-2-.5-3.53l7.5-18.47a3.54,3.54,0,0,0-.23-3.47,3.32,3.32,0,0,0-2.91-1.46h-4.81l-11.31,28.1H79.7l33-82.28h35.15ZM137.35,53.92a3.85,3.85,0,0,0,0-3.47A2.92,2.92,0,0,0,134.56,49h-4.48l-5.26,12.87h4.59a6.5,6.5,0,0,0,3.86-1.45A8.8,8.8,0,0,0,136.12,57Z"/><path d="M72.41.17c7.38,0,13.9-.3,20.63-.11L248.81,0c-7.3,6.92-9.45,22.36-17.76,22.65H103.65c-7.27.16-36.5,0-38.54,0-2.57,0-6.61,1.16-8.15,2.7S56.74,23,55.3,26.57c-.82,2.16.55,7.81,2.19,9.66a46,46,0,0,0,6.61,5.93q4.16,3.15,8.84,6.93a36.88,36.88,0,0,1,8,8.93A27.58,27.58,0,0,1,85,70q.76,6.77-2.92,15.86a51.35,51.35,0,0,1-6.77,12.4A30.53,30.53,0,0,1,66,106.3a40.29,40.29,0,0,1-12.68,4.39A96.26,96.26,0,0,1,36.43,112a55.85,55.85,0,0,1-19.07-2.92A27.5,27.5,0,0,1,5,100.7,23.15,23.15,0,0,1,.07,87.48Q-.47,79.71,3.37,70H30.58A7.86,7.86,0,0,1,36,71.79q2,1.77,0,6.23a4,4,0,0,0-.38,1.08,4.91,4.91,0,0,0-.08.76,12.71,12.71,0,0,0-.38,5.23c.25,1.44,1.36,2.15,3.31,2.15a8.27,8.27,0,0,0,6.14-2.3A23.17,23.17,0,0,0,49,77.25a5.45,5.45,0,0,0-1.23-5.92,43.79,43.79,0,0,0-6.61-6q-4.14-3.15-8.84-7a38.58,38.58,0,0,1-8-8.92,26.88,26.88,0,0,1-4.08-11.91c-.51-4.56-1.92-5,.54-11.07a50.77,50.77,0,0,1,6.76-12.37A30.53,30.53,0,0,1,36.88,6c5.86-3.57,12.58-4.69,18-5.37C61.74.07,66,.17,72.41.17Z"/></g></g></svg>